<svg width="300" height="300"
	xmlns="http://www.w3.org/2000/svg">
	<g>
		<title>Layer 1</title>
		<g id="svg_2" transform="matrix(0.477032 0 0 0.477032 15 16.5026)" fill="#fff">
			<svg id="svg_1" height="559.7" width="565.9" viewBox="0 0 565.9 559.7" y="4.19259" x="-2.0963"
				xmlns:xlink="http://www.w3.org/1999/xlink">
				<title/>
				<g id="svg_4">
					<path id="svg_9" d="m104.3,486.2c-2.7,-2.3 -5.1,-4.3 -7.7,-6.6c-0.7,-0.7 -1.3,-1.4 -1.8,-2.2c0,-1 -1.3,-2.5 -3.3,-4.4s-4.8,-4 -7.5,-6.3c-5,-5.3 -6.7,-6.5 -8.2,-5.9l6.7,7.4c1,1.3 2,2.5 3,3.7l3.2,3.6l-3.3,-3.5c-1.1,-1.1 -2.1,-2.4 -3.2,-3.6l-6.4,-7.5c-2.8,-3.2 -4.8,-4.2 -5.3,-3.6c1.4,1.9 2.8,3.8 4.3,5.7l4.6,5.5c1,2.4 -0.9,1.2 -1.2,1.5l3.3,3.6c1.1,1.2 2.3,2.4 3.5,3.5c2.4,2.4 4.8,4.8 7.4,7.2l8,7.2c1.3,1.2 2.8,2.4 4.2,3.5l4.3,3.5c1.1,0.9 2.2,1.8 3.4,2.6l3.6,2.5c1.9,0.1 3.6,-0.1 5.5,-0.1l-1.4,-1l3.7,-1c-6.7,-4.8 -13.2,-10 -19.4,-15.3zm-11,-4.7c-1.8,-2 -3.6,-3.9 -5.4,-5.9c1.1,1.2 2.3,2.4 3.5,3.7l1.8,1.9c0.6,0.6 1.3,1.2 1.9,1.9s1.5,1.4 2.3,2c-1.5,-1.1 -2.9,-2.3 -4.1,-3.6l0,0z"/>
					<path id="svg_8" d="m139,514.2c-1.8,-1 -3.6,-2.3 -5.7,-3.6c-2.6,-1.5 -5.3,-2.9 -8,-4.2c1.5,1.8 3.3,3.4 5.3,4.6c1.4,0.9 3,1.9 4.8,3s4.1,2.2 6.6,3.4c0.6,-0.2 -2,-2.1 -3,-3.2z"/>
					<path id="svg_7" d="m565.9,299.8c-0.1,-1.7 -0.1,-3.5 -0.1,-5.8c0,-1.1 0,-2.4 0,-3.8l0.1,-2.2l0,-1.5c0.1,-1.1 0.1,-2.3 0.1,-3.5c0,-3.4 -0.1,-6.9 -0.2,-10.5s-0.5,-7.2 -0.7,-10.7c-0.7,-2.5 -1.3,-4.6 -2.2,-7.1l-1,-9.9c-0.1,-1.6 -0.5,-3.3 -0.7,-4.9l-0.8,-4.9c0.4,-0.3 0.6,-1.5 0.5,-3c-0.1,-1.8 -0.3,-3.6 -0.9,-5.3c-1,-1.5 -1.9,-5.6 -2.9,-10s-2.8,-8.8 -4.8,-11.2c-0.4,-1.3 -0.8,-3 -1.4,-4.7l-2.1,-6.3c-1.1,-2.6 0.8,4.8 -0.2,2.1c-1,-2 -2.1,-4.9 -3.2,-7.3s-2.3,-4.4 -3,-4.6c0.2,1.9 0.7,3.8 1.6,5.6c0.9,2.1 2.3,5.2 4.5,10.9c-0.2,2.1 0.9,6.6 2.3,11.5l1.1,3.8c0.3,1.3 0.6,2.5 0.9,3.8c0.5,2.2 0.9,4.5 1.2,6.7c1.1,3 2.1,6.4 3.1,9.8c0.7,4.4 1.2,6.8 1.5,9.5c0.9,4.1 1.8,7.9 2.6,11.7c-1,-1.5 -0.8,6.1 -1.6,6.3l0.4,6.7c0.1,2 0.1,4.1 0.2,6.1c-0.6,-0.1 -1.2,-0.1 -1.8,0c-0.6,-0.5 -0.8,-0.7 -1.5,5.5c-0.6,1.6 -1.2,3.5 -1.8,5.1c-0.5,0 -0.9,0 -1.4,-0.1c0.6,-1.1 0.8,-4.8 0.7,-9c0,-2.2 -0.2,-4.4 -0.3,-6.5c-0.2,-1.7 -0.5,-3.5 -1,-5.1c-0.3,0 -0.6,0 -0.9,-0.1c-1.2,-1.1 -2.3,-2.3 -3.3,-3.6l-1.1,-4.7l-1.3,-4.9l-1,-7.8c-0.3,0 -0.6,0 -1.5,0c-0.6,-3.1 -1,-6 -1.5,-8.6c-0.2,-1.3 -0.5,-2.5 -0.8,-3.7c-0.3,-1.1 -0.7,-2.1 -1.1,-3.1c-0.8,-3.5 -1.5,-7 -2.4,-10.5l-3,-10.6c-0.1,-0.5 -0.3,-1.1 -0.4,-1.6l-0.5,-1.6l-1,-3.1l-2,-6.3c-0.3,-1.1 -0.7,-2.1 -1.1,-3.1l-1.2,-3.1l-2.2,-6.2c-1.3,-3.6 -2.8,-7.1 -4.3,-10.7c-0.7,-1.8 -1.5,-3.5 -2.3,-5.3l-2.4,-5.3c-1.4,-3.1 -3,-6.1 -4.5,-9.1l-2.3,-4.5c-0.8,-1.5 -1.7,-2.9 -2.5,-4.4c-1,-2.8 -2.3,-5.5 -3.7,-8.1c-1.8,-3.1 -3.9,-6.1 -6.1,-8.9l-3.8,-2.7l-2.8,-3.7c2.6,1.6 -0.3,-2.4 -0.8,-3.7c-0.5,-0.7 -1.1,-1.3 -1.6,-2l-1.7,-1.9c-1.1,-1.2 -2.3,-2.4 -3.4,-3.6c-0.7,-1.8 -1.1,-3.4 -1.7,-5c-1.6,-1.9 -3.3,-3.6 -4.9,-5.4l-2.4,-2.7c-0.8,-0.9 -1.6,-1.8 -2.5,-2.7c-1.3,-1.5 -2.8,-2.8 -4.5,-3.9l-0.5,-0.6l-1.1,-1.4l-1.4,-1.5l-6.2,-5.8l-1.6,-1.4l-1.6,-1.4l-3.1,-2.7c-1.6,-1.6 -3.1,-3.2 -4.8,-4.7l-1.9,-1.7c1.1,0.3 2.2,0.7 3.5,1.2l1.1,-0.3l-2.5,-2.1c-0.8,-0.7 -1.6,-1.3 -2.4,-1.9c-4,-2.9 -5.6,-3.3 -7,-3.6l-0.8,-0.1c-2.1,-1.7 -4.4,-3.3 -6.5,-4.9c-1,-0.7 -1.9,-1.5 -2.9,-2.1l-3,-2l-5.9,-4l-1.5,-1l-1.4,-0.9l-0.7,-0.4l-1.9,-3c-3.9,-2.1 -7.6,-4 -11.6,-6c-4.2,-2 -8.8,-4.3 -13.1,-6.3l-3,-1.2l-1.3,-0.6c-1.7,-0.7 -3.3,-1.4 -5,-2l-5.8,-2.3c0.6,-1.7 -7.5,-4 -10.2,-4.3c-1.2,-0.4 -2.5,-0.9 -3.7,-1.3l-0.4,-0.1l-0.4,-0.2l-0.5,-0.1l-2.6,-0.8l-7.6,-2.2c-2.5,-0.7 -5.1,-1.2 -7.7,-1.9l-3.8,-0.9c-1.3,-0.3 -2.6,-0.6 -3.9,-0.8l-7.7,-1.7c-0.5,-0.6 -1.2,-0.9 -2,-1.1c-0.6,-0.2 -1.2,-0.4 -1.8,-0.5c-0.6,-0.1 -1.4,-0.2 -2.1,-0.3c-1.6,-0.2 -3.3,-0.4 -4.8,-0.4l1.1,-1.1c3.4,0.5 6.8,1 9.8,1.6l8.7,2l4.3,1l4.4,1.2c0.4,-0.3 0.8,-0.6 1.2,-0.9c1.8,0.3 3.5,0.7 5,1l2.8,1.2c0.9,0.4 1.8,0.9 2.7,1.3l5.4,2.7c1.3,0.1 2.6,0.1 3.9,0.3c1.1,0.3 2.1,0.5 3,0.8l2.5,0.7c1.5,0.4 2.7,0.7 3.6,0.8c1.9,0.3 2.7,0.1 2.9,-0.6c2.8,0.8 5.5,1.8 8.3,2.7c4.1,1.8 8.6,4 14.7,6.6c1.4,1.3 3,2.4 4.8,3.2c1.3,0.7 2.8,1.5 4.5,2.3c0.9,0.4 1.7,0.8 2.6,1.3l2.9,1.4c-1.2,-1.6 -2.8,-2.9 -4.6,-3.8c-1,-0.5 -2.1,-1.1 -3.4,-1.7l2,0.8c-1,-1 -2.1,-1.8 -3.3,-2.5c-1.5,-0.8 -3.2,-1.7 -5.2,-2.6s-4.2,-1.9 -6.5,-2.8s-4.9,-1.8 -7.5,-2.7l-2.2,-0.9c-1.6,-0.9 -3.1,-1.7 -4.6,-2.5c-1.8,-0.9 -3.6,-1.8 -5.5,-2.5c-2.4,-1 -5,-1.6 -7.6,-1.9l-0.3,-0.1l-2.9,-1c-1.1,-0.2 -2.3,-0.4 -3.3,-0.7l-1.3,0.9c-2.3,-0.7 -4.3,-1.4 -6.6,-2c-1.2,-0.7 -2.4,-1.2 -3.7,-1.6c0.9,0.2 1.9,0.4 2.8,0.6c2.1,0.4 4.5,0.9 7,1.2l-5,-2.1l-2.5,-1c-0.9,-0.3 -1.7,-0.6 -2.6,-0.9c0.2,-0.4 0.3,-0.8 0.5,-1.2c0,-0.1 0.1,-0.2 0.1,-0.2c-1.6,-0.5 -3.2,-1 -4.8,-1.5l-4,-0.9c-1.3,-0.3 -2.6,-0.6 -4,-0.9c-3.8,-0.6 -2.5,0.8 -5.3,0.9c-1.5,-0.5 -2.9,-1.2 -4.3,-2c-0.8,-0.4 -1.7,-0.8 -2.6,-1c-1.3,-0.3 -2.7,-0.5 -4,-0.6c-3.1,-0.3 -6.5,-0.7 -9.9,-1l-9.2,-0.8c0,0.1 -0.1,0.3 -0.1,0.3c-1.2,0.1 -2.4,0.2 -3.5,0.3l-3.5,0.5l-7,-0.2l-3.5,-0.1c-1.2,0 -2.4,0 -3.5,0.1c-2.4,0 -4.7,0.1 -6.9,0.1l-1.3,0c0,0 0,-0.1 0.1,-0.1c-1.8,-0.6 -3.7,-0.9 -5.7,-0.8c-1.9,0.1 -3.8,0.4 -5.6,1l-5.1,0.3c-1.7,0.1 -3.3,0.3 -5.1,0.5l-2.2,0.7c-2.6,0.3 -5.1,0.6 -7.6,1c-1.5,-0.3 -1.5,-0.7 -3.1,-0.8l-8.5,1.2l-2.2,0.4c-0.7,0.1 -1.4,0.3 -2.1,0.4l-4.1,0.9c-4.5,1 -9.7,2 -9.6,1.1c-2.1,0.6 -4.5,1.1 -7.4,1.9c-1.5,0.4 -3.1,0.8 -5,1.4s-3.8,1.4 -6,2.3l-4.3,2c-1.4,0.7 -2.9,1.3 -4.3,2c-1.3,0.4 -6.2,1.1 -9.9,4.3c0.3,0.1 0.7,0.2 1,0.3c-8.7,3.6 -17.1,7.6 -25.4,12.1c-2.6,0.8 -4.1,0.6 -7.5,2.9c-2,1.6 -5.5,3.6 -6.6,5.4l-6.4,3.5l-6.1,3.7l-4.5,2.9c-1.5,1 -2.9,2.1 -4.4,3.1l-4.3,3.2c-1.4,1.1 -2.9,2.1 -4.3,3.3l-7.8,6c-1,1 -1.9,1.9 -2.8,2.9l-2.9,3.2c-1.7,1.7 -3.5,3.3 -5.3,5l-5.2,5.4c-1.3,1.3 -3,2.7 -4.3,4.2c-1.2,1.3 -2.4,2.7 -3.3,4.2c-2.4,2.5 -4.8,4.8 -6.8,7.1c1.8,-3.1 -1.3,-1 0.3,-4.3c-1.7,1.2 -4.3,5 -6.3,7.4c-1.2,2.2 -2.3,4.1 -3.3,6.4l-0.8,1.1c0,-1.5 -1.9,0.5 -3.1,1.7c-1,1.4 -2,2.8 -3.1,4.5c-1.4,2.3 -2.6,4.6 -3.7,7c-2.1,2.7 -3.3,3.9 -4.4,5.2c-2,3.7 -5.9,9 -6.2,11.8l-4.4,9.1l-1.4,2.5c-0.5,0.8 -0.9,1.7 -1.3,2.6l-2.5,5.1c-1,1.5 -1.9,3.1 -2.6,4.8c-0.8,2 -1.6,4.1 -2.3,5.9l-0.9,4.3c-0.3,1.4 -0.6,2.8 -0.8,4.3l-3.6,10.6c-0.6,1.7 -1,3.4 -1.5,5.1l-1.4,5.1l-0.1,0.5c-1.1,0.5 -1.4,-1 -3.2,0.8l-2.8,12.1c-0.2,0.7 -0.3,1.4 -0.5,2l-0.4,1.9l-0.6,3.4c-0.4,2.2 -0.9,4.2 -1.6,6.5l-0.2,1.8l-0.2,1.9l-0.2,3.8c-0.6,3.1 -1.4,6.3 -1.9,9c-0.4,2 -0.6,4 -0.6,6.1c-0.7,3.5 -0.9,7.2 -0.7,10.8c0.1,1.7 0.1,3.5 0.1,5.8c0,1.1 0,2.4 0,3.8l-0.1,2.2c0,0.5 0,1 0,1.5c-0.1,1.1 -0.1,2.3 -0.1,3.5c0,3.4 0.1,6.9 0.2,10.5s0.5,7.2 0.7,10.7c0.7,2.5 1.3,4.6 2.2,7.1l1,9.9c0.1,1.6 0.4,3.3 0.7,4.9l0.8,4.9c-0.4,0.3 -0.6,1.5 -0.5,3c0.1,1.8 0.3,3.6 0.9,5.3c1,1.5 1.9,5.6 2.9,10s2.8,8.8 4.8,11.2c0.4,1.3 0.8,3 1.4,4.7l2.1,6.2c1.1,2.6 -0.8,-4.8 0.2,-2.1c1,2 2.1,4.9 3.2,7.3s2.3,4.4 3,4.6c-0.2,-1.9 -0.7,-3.8 -1.6,-5.6c-0.9,-2.1 -2.3,-5.2 -4.5,-10.9c0.2,-2.1 -0.9,-6.6 -2.3,-11.5l-1.1,-3.8c-0.3,-1.3 -0.6,-2.5 -0.9,-3.8c-0.5,-2.2 -0.9,-4.5 -1.1,-6.7c-1.1,-3 -2.1,-6.4 -3.1,-9.8c-0.7,-4.4 -1.2,-6.8 -1.5,-9.5c-0.9,-4.1 -1.8,-7.9 -2.6,-11.7c1,1.5 0.8,-6.1 1.6,-6.3l-0.5,-6.7c-0.1,-2 -0.1,-4.1 -0.2,-6.1c0.6,0.1 1.2,0.1 1.8,0c0.6,0.5 0.9,0.7 1.5,-5.5c0.6,-1.6 1.2,-3.5 1.8,-5.1c0.5,0 0.9,0 1.4,0.1c-0.6,1.1 -0.8,4.8 -0.7,9c0,2.2 0.2,4.4 0.4,6.5c0.2,1.7 0.5,3.5 1,5.1c0.3,0 0.6,0 0.9,0.1c1.2,1.1 2.3,2.3 3.3,3.6l1.1,4.7l1.4,4.9l1,7.8c0.3,0 0.6,0 1.5,0c0.6,3 1,6 1.5,8.6c0.2,1.3 0.5,2.5 0.8,3.7c0.3,1.1 0.7,2.1 1.1,3.1c0.8,3.5 1.5,7 2.4,10.5l3,10.6c0.1,0.5 0.3,1.1 0.4,1.6l0.5,1.6l1,3.1l2,6.3c0.3,1.1 0.7,2.1 1.1,3.1l1.2,3.1l2.2,6.2c1.3,3.6 2.8,7.1 4.3,10.7c0.7,1.8 1.5,3.5 2.3,5.3l2.4,5.3c1.4,3.1 3,6.1 4.5,9.1l2.3,4.5c0.8,1.5 1.7,2.9 2.5,4.4c1,2.8 2.3,5.5 3.7,8.1c1.8,3.1 3.9,6.1 6.1,8.9l3.8,2.7l2.7,3.7c-2.6,-1.6 0.3,2.4 0.8,3.7c0.6,0.6 1.1,1.3 1.6,2l1.7,1.9c1.1,1.2 2.3,2.4 3.4,3.6c0.7,1.8 1.1,3.4 1.7,5c1.6,1.9 3.3,3.6 4.9,5.4l2.4,2.6c0.8,0.9 1.6,1.8 2.5,2.7c1.3,1.5 2.8,2.8 4.5,3.9l0.5,0.6l1.2,1.5l1.4,1.5l6.2,5.8l1.6,1.5l1.6,1.4l3.2,2.7c1.6,1.6 3.1,3.2 4.8,4.7l1.9,1.7c-1.1,-0.3 -2.2,-0.7 -3.5,-1.2l-1.1,0.3l2.6,2.1c0.8,0.7 1.6,1.3 2.4,1.9c4,2.9 5.6,3.3 7,3.6l0.8,0.1c2.2,1.7 4.3,3.3 6.5,4.9c1,0.7 1.9,1.5 2.9,2.1l3,2l5.9,4l1.4,1l1.5,0.9l0.7,0.4l1.9,3c3.9,2.1 7.6,4 11.6,6c4.2,2 8.8,4.3 13.1,6.3l3,1.2l1.3,0.6c1.7,0.7 3.3,1.3 5,2l5.8,2.3c-0.6,1.7 7.4,4 10.2,4.3c1.2,0.4 2.5,0.9 3.7,1.3l0.4,0.1l0.4,0.2l0.5,0.1l2.6,0.8l7.6,2.2c2.5,0.7 5.1,1.2 7.7,1.9l3.8,0.9c1.3,0.3 2.6,0.6 3.9,0.8l7.7,1.7c0.5,0.6 1.2,0.9 2,1.1c0.6,0.2 1.2,0.4 1.8,0.5c0.6,0.1 1.4,0.2 2.1,0.3c1.6,0.2 3.3,0.4 4.8,0.4l-1.1,1.1c-3.4,-0.5 -6.8,-1 -9.8,-1.5l-8.7,-2l-4.3,-1l-4.4,-1.2c-0.4,0.3 -0.8,0.6 -1.2,0.9c-1.8,-0.3 -3.5,-0.7 -5,-1l-2.8,-1.2c-0.9,-0.4 -1.8,-0.9 -2.7,-1.3l-5.4,-2.7c-1.3,-0.1 -2.6,-0.2 -3.9,-0.3c-1.1,-0.3 -2.1,-0.5 -3,-0.8l-2.5,-0.7c-1.5,-0.4 -2.7,-0.7 -3.6,-0.8c-1.9,-0.3 -2.7,-0.1 -2.9,0.7c-2.8,-0.8 -5.5,-1.8 -8.3,-2.7c-4.1,-1.8 -8.6,-4 -14.7,-6.6c-1.5,-1.3 -3.1,-2.4 -4.8,-3.2c-1.3,-0.7 -2.8,-1.5 -4.6,-2.3c-0.9,-0.4 -1.7,-0.8 -2.6,-1.3l-2.9,-1.4c1.2,1.6 2.8,2.9 4.6,3.8c1,0.5 2.1,1.1 3.4,1.7l-2,-0.8c1,1 2.1,1.8 3.3,2.5c1.4,0.8 3.2,1.7 5.2,2.6s4.2,1.8 6.5,2.8s4.9,1.8 7.5,2.7l2.2,0.9c1.6,0.9 3.1,1.7 4.6,2.5c1.8,0.9 3.6,1.8 5.5,2.5c2.4,1 5,1.6 7.6,2l0.3,0.1l2.9,1c1.1,0.2 2.3,0.4 3.3,0.7l1.3,-0.9c2.3,0.7 4.3,1.4 6.6,2c1.2,0.7 2.4,1.2 3.7,1.6c-0.9,-0.2 -1.9,-0.3 -2.8,-0.6c-2.1,-0.4 -4.5,-0.9 -7,-1.2l5.1,2.1l2.6,1c0.9,0.3 1.7,0.6 2.6,0.9c-0.2,0.4 -0.3,0.8 -0.5,1.2c0,0.1 -0.1,0.2 -0.1,0.2c1.6,0.5 3.2,1 4.8,1.5l4,0.9c1.3,0.3 2.6,0.6 4,0.9c3.8,0.6 2.5,-0.8 5.3,-0.9c1.5,0.5 2.9,1.2 4.3,2c0.8,0.4 1.7,0.8 2.6,1c1.3,0.3 2.7,0.5 4,0.6c3.1,0.3 6.5,0.7 9.9,1l9.6,0.5c0,-0.1 0.1,-0.3 0.1,-0.3c1.2,-0.1 2.4,-0.2 3.5,-0.3l3.5,-0.5l7,0.2l3.5,0.1c1.2,0 2.4,0 3.5,-0.1c2.4,0 4.7,-0.1 6.9,-0.1l1.2,0c0,0 0,0.1 -0.1,0.1c1.8,0.6 3.8,0.9 5.7,0.8c1.9,-0.1 3.8,-0.4 5.6,-1l5.1,-0.3c1.7,-0.1 3.3,-0.3 5.1,-0.5l2.2,-0.7c2.6,-0.3 5.1,-0.6 7.6,-1c1.5,0.3 1.5,0.7 3.1,0.8l8.6,-1.5l2.1,-0.4c0.7,-0.1 1.4,-0.3 2.1,-0.5l4.1,-0.9c4.5,-1 9.7,-2 9.5,-1.1c2.1,-0.6 4.5,-1.1 7.4,-1.9c1.5,-0.4 3.1,-0.8 5,-1.4s3.8,-1.4 6,-2.3l4.3,-2c1.5,-0.7 2.9,-1.3 4.3,-2c1.3,-0.4 6.2,-1.1 9.9,-4.3c-0.3,-0.1 -0.7,-0.2 -1,-0.3c8.7,-3.6 17.2,-7.6 25.4,-12.1c2.6,-0.8 4.1,-0.6 7.5,-2.9c2,-1.6 5.5,-3.6 6.6,-5.4l6.5,-3.6l6.1,-3.7l4.5,-2.9c1.5,-1 2.9,-2.1 4.4,-3.1l4.3,-3.2c1.4,-1.1 2.9,-2.1 4.3,-3.3l7.9,-6c1,-1 1.9,-1.9 2.8,-2.9l2.9,-3.2c1.7,-1.7 3.5,-3.3 5.3,-5l5.2,-5.4c1.4,-1.3 3,-2.7 4.3,-4.2c1.2,-1.3 2.4,-2.7 3.3,-4.2c2.4,-2.5 4.8,-4.8 6.8,-7.1c-1.8,3.1 1.3,1 -0.3,4.3c1.7,-1.2 4.3,-5 6.3,-7.4c1.2,-2.2 2.3,-4.1 3.4,-6.5l0.8,-1.1c0,1.5 1.9,-0.5 3.1,-1.7c1,-1.4 2,-2.8 3.1,-4.5c1.4,-2.3 2.6,-4.6 3.7,-7c2.1,-2.7 3.3,-3.9 4.4,-5.2c2,-3.7 5.9,-9 6.2,-11.8l4.4,-9.1l1.4,-2.5c0.5,-0.8 0.8,-1.7 1.3,-2.5l2.5,-5.1c1,-1.5 1.9,-3.1 2.6,-4.8c0.8,-2 1.6,-4.1 2.3,-5.9l0.9,-4.3c0.3,-1.4 0.6,-2.8 0.8,-4.3l3.4,-10.4c0.6,-1.7 1,-3.5 1.5,-5.1l1.4,-5.1l0.1,-0.5c1.1,-0.5 1.4,1 3.2,-0.8l2,-11.8c0.2,-0.7 0.3,-1.4 0.5,-2l0.4,-1.9l0.7,-3.4c0.4,-2.2 0.9,-4.2 1.6,-6.5l0.2,-1.8l0.2,-1.9l0.3,-3.7c0.6,-3.1 1.3,-6.3 1.9,-9c0.4,-2 0.6,-4 0.6,-6.1c0.4,-3.6 0.7,-7.3 0.5,-10.9zm-260.2,-296.3c1.5,0 3.3,-0.1 5.2,0s4,0.1 6.5,0.1l5.7,0.9c1.9,0.3 3.7,0.8 5.6,1.1l5.5,1.2l2.8,0.6l2.8,0.7c0.5,0.6 1.2,1 2,1.2l-0.1,0c-4.3,-0.8 -9.1,-1.4 -13.7,-2.1c-2.9,-0.6 -5.9,-0.9 -8.9,-1.4s-6,-1 -8.9,-1.2c-3.6,-0.2 -7.1,-0.5 -10.3,-0.7c-0.8,-0.1 -1.7,-0.1 -2.5,-0.1l0.5,-0.3c2.2,0 4.7,0 7.8,0zm-262,128.8l-0.3,0.4l-0.3,0.3c0.3,-0.5 0.6,-0.9 0.9,-1.4c-0.1,0.2 -0.2,0.4 -0.3,0.7zm20.5,280.2l-2.3,-2.6c-0.8,-0.9 -1.6,-1.8 -2.3,-2.7l-1.5,-2.8l-3,-5.8l-0.8,-1.5l-0.7,-1.5l-1.5,-3.1l-3,-6.3c-0.9,-2.1 -1.8,-4.3 -2.7,-6.5s-1.8,-4.3 -2.7,-6.5l-2.4,-6.5c-1.7,-4.3 -2.9,-8.6 -4.2,-12.7c-0.4,-0.4 -0.8,-0.9 -1.1,-1.4c-0.3,-0.8 -0.6,-1.7 -0.8,-2.6l-0.8,-3.1c-0.5,-2.3 -1.2,-5.1 -2,-9.2l2.1,-0.2c-0.2,-2.5 -0.5,-5 -0.8,-7.5c-0.8,-2.5 -1.3,-4.6 -2.2,-5.8c-0.3,-3.4 -0.8,-7.2 -1.4,-11.2s-0.9,-8.2 -1.5,-12.2c-0.2,-1 -0.2,-2 -0.3,-3l-0.3,-2.9c-0.2,-1.9 -0.4,-3.8 -0.7,-5.5l-0.4,-2.5l-0.2,-2.3c-0.1,-0.6 -0.1,-1.1 -0.2,-1.6c0.2,0.5 0.5,0.9 0.9,1.2c0,-2.6 0,-5.2 0.1,-7.8c0.1,-1.1 0.3,-2.2 0.7,-3.3c0.3,-0.7 0.6,-1 0.8,-1.5c0.5,-1 0.9,-2.4 1.1,-7.5c-0.3,-0.6 -0.5,-1.2 -0.5,-1.9c-0.1,-1.1 -0.1,-2.1 -0.1,-3.2c0,-2.2 0,-4.3 -0.7,-4.4c0.3,-2.8 0.6,-5.5 1,-8l1.5,-7.2c0.8,-4.7 2,-9 2.7,-13.6c0.8,-3.5 1.4,-6.1 1.9,-8.5s0.8,-4.5 1.6,-7.2c0,-2.3 3.6,-8.9 2,-8.1c3.6,-13 8.7,-24.4 14.5,-36c-1.7,-0.6 -0.1,-3.9 2.4,-7.5s5.3,-7.9 6,-10.7c1.2,-1 2.3,-2.1 3.1,-3.5c0.5,-0.7 1,-1.5 1.5,-2.4l0.8,-1.3l0.8,-1.3c1.1,-1.8 2.2,-3.6 3.5,-5.3c0.6,-0.9 1.3,-1.7 1.9,-2.5c0.6,-0.8 1.3,-1.5 2.1,-2.1c2.3,-3.2 4.7,-6.5 7.3,-9.8s5.3,-6.4 8.1,-9.6s5.7,-6.1 8.6,-9s5.9,-5.5 8.7,-8c1.7,-1.6 3.3,-3.1 5,-4.7l2.6,-2.3c0.8,-0.8 1.7,-1.5 2.6,-2.2c1.8,-1.4 3.6,-2.8 5.5,-4.3l2.8,-2.1c0.9,-0.7 1.9,-1.3 2.9,-2c3.9,-2.6 7.9,-5.4 12.2,-7.9l6.5,-3.9l6.9,-3.8c0.1,-0.9 3.4,-2.4 4.2,-3.6l11.1,-5.4l11.5,-5l10.2,-3.9c1.8,-0.7 3.7,-1.2 5.6,-1.9l5.8,-1.8c7.8,-2.3 15.8,-4.2 22.7,-5.5c1.2,-0.5 2.5,-0.9 3.7,-1.1c1.5,-0.4 2.9,-0.8 3,-1.7c2.2,0.1 4.5,0 6.7,-0.2c1.4,-0.2 2.7,-0.4 4.1,-0.7c1.5,-0.3 3,-0.6 4.5,-1.1c2.2,0 4.3,-0.1 6.4,-0.4c2.2,-0.2 4,-0.2 3.8,0.4c2,-0.2 6.2,0 6.2,-0.6c1.4,-0.3 2.9,-0.5 4.4,-0.5c1.7,-0.1 3.5,0.1 5.1,0c2.8,-0.3 5.2,-0.6 8.3,-0.9c-1,0.7 0.7,0.9 2.6,1c1.5,0.2 3,0.1 4.5,-0.1c1.8,-0.2 3.6,-0.2 5.4,-0.1l1.6,0c0.5,0 1.1,0 1.6,0c1,0 2,-0.2 2.9,-0.5l1.6,0.2c1.9,0.7 4,1.3 6,1.6c1.5,0.4 3.1,0.3 4.5,-0.1c1.7,0.3 3,0.8 4.7,1.1c2.7,0.3 5.3,0.4 8,0.2c1.7,0.2 3.3,0.5 4.7,0.6c-2.5,0.5 2.5,1.2 1.7,1.9c3,0.3 6,0.8 8.9,1.6c3.2,0.8 6.7,1.6 10.1,2.8l5.1,1.6c1.7,0.5 3.3,1 4.9,1.6c2.8,1 5.7,1.9 8.7,2.6c1.9,0.7 3.8,1.5 5.6,2.3l5.5,2.4c1.2,0.4 2.4,1 3.6,1.6c1.1,0.9 2.4,1.7 3.8,2.1l1.2,0.3l0.1,0c1.5,0.7 3,1.4 4.5,2c1,0.4 1.9,0.8 2.8,1.1c0.8,0.6 1.5,1.3 2.2,2c1,1.3 2.2,2.5 3.6,3.5c1.1,0.8 2.2,1.4 3.4,2c1.4,0.7 3.1,1.4 5.2,2.4c4,2.1 7.8,4.6 11.3,7.5c3.1,2.6 5.9,5.1 8.3,7.4c1.3,1.4 2.6,2.7 4.1,3.8c1.3,0.9 2.4,1.6 3.5,2.3c2.4,1.3 4.7,2.8 6.8,4.5c0,0.4 0.7,1.2 1.3,1.9s1.2,1.5 0.9,1.7c1.6,1.4 4.2,4.4 4.4,3.8c1.1,0.7 2.1,1.5 3,2.4c0.7,0.8 1.4,1.6 2,2.4c1.2,1.8 2.6,3.5 4.1,5c1.1,0.8 1.9,1.8 2.4,3c0.2,0.6 -0.1,0.9 -0.5,0.8l6.5,7.5c-0.7,0.2 3.5,5.1 7.1,9.7c1.5,2.9 5.8,7.9 5,8.6c1.4,1.9 2.5,3.8 4,6.1l3,4.8c1.2,2.1 2.3,4.2 3.4,6.3l1.7,3.2l0.9,1.6l0.8,1.6c2.2,5.4 4.1,9.1 5.7,13l2.6,6c0.9,2.2 1.7,4.6 2.6,7.4c-0.5,0.4 -0.4,1.3 -0.3,2.6c0.1,0.6 0.2,1.3 0.4,2.1s0.2,1.6 0.3,2.5l-1.5,0.3c0.2,3.1 1.4,6.4 2.7,9.8c1.3,3.4 2.2,6.9 2.8,10.5c1.7,3.7 2.8,14 4.3,13.7c0.5,-1.8 -0.5,-5.2 -1.2,-8.4l-0.3,-5c-0.1,-1.7 -0.4,-3.3 -0.6,-5c0.6,-0.1 1.2,-0.1 1.8,-0.2c0.6,1.1 1.2,1.9 1.7,2.8c1,2.9 1.7,5.6 2.6,8.5c0.3,1.3 0.7,2.9 1,4.5c0.2,1.4 0.7,2.8 1.3,4.1l1,5.7c0.3,2.1 0.4,4.3 0.7,6.4l0.6,6.4c0.2,1 0.2,2.1 0.3,3.2l0.3,3.3l0.6,6.5c-0.5,2.4 -0.1,6.9 0.5,13.1c0.2,-4.2 0.3,-8.4 0.4,-13l-0.4,-8l-0.2,-4l-0.4,-4l-0.5,-4.2l-0.1,-2.8l-0.1,-1.4l-0.1,-1.4c-0.2,-1.9 -0.4,-3.7 -0.7,-5.6s-0.5,-3.8 -0.9,-5.8s-0.9,-4 -1.4,-6l-0.5,-5c-0.2,-1.6 -0.5,-3.3 -0.7,-4.9c0.7,-0.1 1.2,-0.1 1.5,-0.2l-1.2,-5.1l-0.6,-2.5l-0.7,-2.5c-1,-3.3 -2,-6.6 -3,-10c-1,-2.7 -2,-5.2 -2.8,-7.6l-1.3,-3.4l-1.3,-3.3l-2.4,-6.6c-0.4,-1.1 -0.9,-2.2 -1.3,-3.3l-1.5,-3.3c-0.8,-1.5 -1.6,-3 -2.3,-4.4l-0.5,-1.1l-0.6,-1.1l-1.1,-2.2c-0.7,-1.5 -1.5,-2.9 -2.1,-4.4l-0.7,-1.5c1.2,0.9 2.2,1.6 3.3,2.4l2.3,2.6c0.8,0.9 1.6,1.8 2.3,2.7l1.5,2.8l3,5.8l0.8,1.5l0.7,1.5l1.5,3.1l3,6.3c0.9,2.1 1.8,4.3 2.7,6.5s1.8,4.3 2.7,6.5l2.4,6.5c1.7,4.3 2.9,8.6 4.2,12.7c0.4,0.4 0.8,0.9 1.1,1.4c0.3,0.8 0.6,1.7 0.8,2.6l0.8,3.1c0.5,2.3 1.2,5.1 2,9.2l-2.1,0.2c0.2,2.5 0.5,5 0.8,7.5c0.8,2.5 1.3,4.6 2.2,5.8c0.3,3.4 0.8,7.2 1.4,11.2s0.9,8.2 1.5,12.2c0.2,1 0.2,2 0.3,3l0.3,2.9c0.2,1.9 0.4,3.8 0.7,5.5l0.4,2.5l0.3,2.4c0.1,0.6 0.1,1.1 0.2,1.6c-0.2,-0.5 -0.5,-0.9 -0.9,-1.2c0,2.6 0,5.2 -0.1,7.8c-0.1,1.1 -0.3,2.2 -0.7,3.3c-0.3,0.7 -0.6,1 -0.8,1.5c-0.5,1 -0.9,2.4 -1.2,7.5c0.3,0.6 0.4,1.3 0.4,1.9c0.1,1.1 0.1,2.1 0.1,3.2c0,2.2 0,4.3 0.7,4.4c-0.3,2.8 -0.6,5.5 -1,8l-1.5,7.2c-0.8,4.7 -2,9 -2.7,13.6c-0.8,3.5 -1.4,6.1 -1.9,8.5s-0.8,4.5 -1.6,7.2c0,2.3 -3.6,8.9 -2,8.1c-3.2,12.9 -8.3,24.3 -14.1,35.9c1.7,0.6 0.1,3.9 -2.4,7.5s-5.3,8 -6,10.7c-1.2,1 -2.3,2.1 -3.1,3.5c-0.5,0.7 -1,1.5 -1.5,2.4l-0.8,1.3l-0.8,1.3c-1.1,1.8 -2.2,3.6 -3.5,5.3c-0.6,0.9 -1.3,1.7 -1.9,2.5c-0.6,0.8 -1.3,1.5 -2.1,2.1c-2.3,3.2 -4.7,6.5 -7.3,9.8s-5.3,6.5 -8.1,9.6s-5.7,6.1 -8.6,9s-5.9,5.5 -8.7,8c-1.7,1.6 -3.3,3.1 -5,4.7l-2.6,2.3c-0.9,0.8 -1.7,1.5 -2.6,2.2c-1.8,1.4 -3.6,2.8 -5.5,4.3l-2.8,2.1c-0.9,0.7 -1.9,1.3 -2.9,2c-3.9,2.6 -7.9,5.4 -12.2,7.9l-6.5,3.9l-6.9,3.8c-0.1,0.9 -3.4,2.4 -4.2,3.6l-11.1,5.4l-11.5,5l-10.2,3.9c-1.8,0.7 -3.7,1.2 -5.6,1.9l-5.7,1.9c-7.8,2.3 -15.8,4.2 -22.7,5.5c-1.2,0.5 -2.5,0.9 -3.7,1.1c-1.5,0.4 -2.9,0.8 -3,1.7c-2.2,-0.1 -4.5,0 -6.7,0.2c-2.9,0.4 -5.7,1 -8.5,1.8c-2.2,0 -4.3,0.1 -6.4,0.4c-2.2,0.2 -4,0.2 -3.8,-0.4c-2,0.2 -6.2,0 -6.2,0.6c-1.4,0.3 -2.9,0.5 -4.4,0.5c-1.7,0.1 -3.5,-0.1 -5.1,0c-2.8,0.3 -5.2,0.6 -8.3,0.9c1,-0.7 -0.7,-0.9 -2.6,-1c-1.5,-0.2 -3,-0.1 -4.5,0.1c-1.8,0.2 -3.6,0.2 -5.4,0.1l-1.6,0c-0.5,0 -1.1,0 -1.6,0c-1,0 -2,0.2 -2.9,0.5l-1.6,-0.2c-1.9,-0.7 -4,-1.3 -6,-1.6c-1.5,-0.4 -3.1,-0.3 -4.6,0.1c-1.7,-0.3 -3,-0.8 -4.7,-1.1c-2.7,-0.3 -5.3,-0.4 -8,-0.2c-1.7,-0.2 -3.3,-0.5 -4.7,-0.7c2.5,-0.5 -2.5,-1.2 -1.7,-1.9c-3,-0.3 -6,-0.8 -8.9,-1.6c-3.2,-0.8 -6.7,-1.6 -10.1,-2.8l-5.1,-1.6c-1.7,-0.5 -3.3,-1 -4.9,-1.6c-2.8,-1 -5.7,-1.9 -8.7,-2.6c-1.9,-0.7 -3.8,-1.5 -5.6,-2.3l-5.6,-2.4c-1.2,-0.4 -2.4,-1 -3.6,-1.6c-1.1,-0.9 -2.4,-1.7 -3.8,-2.1l-1.2,-0.3l-0.1,0c-1.5,-0.7 -3,-1.4 -4.5,-2c-1,-0.4 -1.9,-0.8 -2.8,-1.1c-0.8,-0.6 -1.5,-1.4 -2.1,-2.1c-1,-1.3 -2.2,-2.5 -3.6,-3.5c-1.1,-0.8 -2.2,-1.4 -3.4,-2c-1.4,-0.7 -3.1,-1.4 -5.2,-2.4c-4,-2.1 -7.8,-4.6 -11.3,-7.5c-3.1,-2.6 -5.9,-5 -8.3,-7.4c-1.3,-1.4 -2.6,-2.7 -4.1,-3.8c-1.3,-0.9 -2.4,-1.6 -3.5,-2.3c-2.4,-1.3 -4.7,-2.8 -6.8,-4.5c0,-0.4 -0.7,-1.2 -1.3,-1.9s-1.2,-1.5 -0.9,-1.7c-1.6,-1.4 -4.2,-4.4 -4.4,-3.8c-1.1,-0.7 -2.1,-1.5 -3,-2.4c-0.7,-0.8 -1.4,-1.6 -2,-2.5c-1.2,-1.8 -2.6,-3.5 -4.1,-5c-1.1,-0.8 -1.9,-1.8 -2.4,-3c-0.2,-0.6 0.1,-0.9 0.5,-0.8l-6.4,-7.5c0.7,-0.2 -3.5,-5.1 -7.1,-9.7c-1.6,-2.9 -5.8,-7.9 -5,-8.6c-1.4,-1.9 -2.5,-3.8 -4,-6.1l-3,-4.8c-1.2,-2.1 -2.3,-4.2 -3.4,-6.3l-1.8,-3l-0.9,-1.6l-0.8,-1.7c-2.2,-5.4 -4.1,-9.1 -5.7,-13l-2.6,-6c-0.9,-2.2 -1.7,-4.6 -2.6,-7.4c0.5,-0.4 0.4,-1.3 0.3,-2.5c-0.1,-0.6 -0.2,-1.3 -0.3,-2.1s-0.2,-1.6 -0.3,-2.5l1.5,-0.3c-0.2,-3.1 -1.4,-6.4 -2.7,-9.8c-1.3,-3.4 -2.2,-6.9 -2.8,-10.5c-1.7,-3.7 -2.8,-14 -4.3,-13.7c-0.5,1.8 0.5,5.2 1.2,8.4l0.3,5c0.1,1.7 0.4,3.3 0.6,5c-0.6,0.1 -1.2,0.1 -1.8,0.2c-0.6,-1.1 -1.2,-1.9 -1.7,-2.8c-1,-2.9 -1.7,-5.6 -2.6,-8.5c-0.3,-1.3 -0.7,-2.9 -1,-4.5c-0.2,-1.4 -0.7,-2.8 -1.3,-4.1l-1,-5.7c-0.3,-2.1 -0.4,-4.3 -0.7,-6.4l-0.6,-6.4c-0.2,-1 -0.2,-2.1 -0.3,-3.2l-0.3,-3.3l-0.6,-6.5c0.5,-2.4 0.1,-6.9 -0.5,-13.1c-0.2,4.2 -0.3,8.4 -0.4,13l0.4,8l0.2,4l0.4,4l0.5,4.2l0.1,2.8l0.1,1.4l0.1,1.4c0.2,1.9 0.4,3.7 0.7,5.6s0.5,3.8 0.9,5.8s0.9,4 1.4,6l0.5,5c0.2,1.6 0.5,3.3 0.7,4.9c-0.7,0.1 -1.2,0.1 -1.5,0.2l1.2,5.1l0.6,2.5l0.7,2.5c1,3.3 2,6.6 3,10c1,2.7 2,5.2 2.8,7.6l1.2,3.5l1.3,3.3l2.4,6.6c0.4,1.1 0.8,2.2 1.3,3.3l1.5,3.3c0.8,1.5 1.6,3 2.3,4.4l0.5,1.1l0.6,1.1l1.1,2.1c0.7,1.5 1.5,2.9 2.2,4.4l0.7,1.5c-1.7,-0.9 -2.7,-1.7 -3.8,-2.4l0,0zm196,143.6c-1.5,0 -3.3,0.1 -5.2,0s-4.1,-0.1 -6.5,-0.1l-5.7,-0.9c-1.9,-0.3 -3.7,-0.8 -5.6,-1.1l-5.6,-1.2l-2.8,-0.6l-2.8,-0.8c-0.5,-0.6 -1.2,-1 -1.9,-1.2l0.1,0c4.3,0.8 9.1,1.3 13.7,2.1c2.9,0.6 5.9,1 8.9,1.4s6,1 8.9,1.2c3.6,0.2 7.1,0.5 10.3,0.7c0.8,0.1 1.7,0.1 2.5,0.1l-0.5,0.3c-2.2,0.2 -4.6,0.1 -7.8,0.1l0,0zm262,-128.7l0.3,-0.4l0.3,-0.3c-0.3,0.5 -0.6,0.9 -0.9,1.4c0.1,-0.3 0.2,-0.5 0.3,-0.7l0,0z"/>
					<path id="svg_6" d="m461.7,73.5c2.7,2.3 5.1,4.3 7.7,6.6c0.7,0.7 1.3,1.4 1.8,2.2c0,1 1.3,2.6 3.4,4.4s4.8,4 7.5,6.3c5,5.3 6.7,6.5 8.2,5.9l-6.6,-7.4c-1,-1.3 -2,-2.5 -3,-3.7l-3.1,-3.6l3.3,3.5c1.1,1.2 2.1,2.4 3.2,3.6l6.4,7.5c2.8,3.2 4.8,4.2 5.3,3.6c-1.4,-1.9 -2.8,-3.8 -4.3,-5.7l-4.6,-5.5c-1,-2.4 0.9,-1.2 1.2,-1.5l-3.3,-3.6c-1.1,-1.2 -2.3,-2.3 -3.5,-3.5c-2.4,-2.3 -4.8,-4.8 -7.4,-7.2l-8,-7.2c-1.3,-1.2 -2.8,-2.4 -4.2,-3.5l-4.3,-3.5c-1.1,-0.9 -2.2,-1.8 -3.4,-2.6l-4,-2.6c-1.9,-0.1 -3.6,0.1 -5.5,0.1l1.4,1l-3.7,1c6.8,4.9 13.2,10 19.5,15.4zm11,4.7c1.8,2 3.6,3.9 5.4,5.9c-1.1,-1.2 -2.3,-2.4 -3.5,-3.7l-1.8,-1.9c-0.6,-0.6 -1.3,-1.2 -1.9,-1.8s-1.5,-1.4 -2.3,-2c1.5,0.9 2.9,2.1 4.1,3.5l0,0z"/>
					<path id="svg_5" d="m426.9,45.5c1.8,1 3.5,2.3 5.7,3.6c2.6,1.5 5.3,2.9 8,4.2c-1.5,-1.8 -3.3,-3.3 -5.3,-4.5c-1.4,-0.9 -3,-1.9 -4.8,-3s-4.1,-2.2 -6.6,-3.4c-0.6,0.1 2.1,2 3,3.1z"/>
				</g>
			</svg>
		</g>
		<g id="svg_3" transform="matrix(5.19122 0 0 5.29222 107.781 98.8037)" fill="#fff">
			<svg id="svg_10" height="32" width="32" viewBox="0 0 32 32" y="-5.93147" x="-8.22493"
				xmlns:xlink="http://www.w3.org/1999/xlink">
				<g id="svg_11">
					<g id="svg_12">
						<path id="svg_13" d="m17.572,23.933l4.106,7.095l10.322,-17.839l-8.981,0l0,-5.607l-11.509,-6.61l-11.51,6.61l0,13.222l11.51,6.611l6.062,-3.482zm10.96,-8.744l-6.855,11.846l-6.855,-11.846l13.71,0z"/>
					</g>
				</g>
			</svg>
		</g>
		<path stroke="null" fill="#001a9e" d="m101.08572,162.14613l-17.10476,0l0,-6.14286l-4.27619,0l0,-6.14286l-4.27619,0l0,-18.42857l4.27619,0l0,-6.14286l4.27619,0l0,-6.14286l17.10476,0l0,6.14286l4.27619,0l0,6.14286l-8.55238,0l0,-6.14286l-8.55238,0l0,6.14286l-4.27619,0l0,18.42857l4.27619,0l0,6.14286l8.55238,0l0,-6.14286l8.55238,0l0,6.14286l-4.27619,0l0,6.14286zm17.10476,0l-8.55238,0l0,-43l8.55238,0l0,18.42857l4.27619,0l0,-6.14286l4.27619,0l0,-6.14286l4.27619,0l0,-6.14286l8.55238,0l0,6.14286l-4.27619,0l0,6.14286l-4.27619,0l0,6.14286l-4.27619,0l0,6.14286l4.27619,0l0,6.14286l4.27619,0l0,6.14286l4.27619,0l0,6.14286l-12.82857,0l0,-6.14286l-4.27619,0l0,-6.14286l-4.27619,0l0,12.28571z" id="svg_25"/>
	</g>
</svg>