<svg xmlns="http://www.w3.org/2000/svg" viewBox="0.00 0.00 300.00 300.00" style="background-color: pink;">
	<g data-mask="1" data-refid="shape" fill="red" data-box="15.00 16.50 270.00 266.99 " transform="matrix(0.47703180212014135 0 0 0.4770318021201414 15 16.502632707252094)">
		<svg version="1.1"
			xmlns="http://www.w3.org/2000/svg"
			xmlns:xlink="http://www.w3.org/1999/xlink" x="0px" y="0px" viewBox="0 0 565.9 559.7" xml:space="preserve" width="565.9" height="559.7">
			<title></title>
			<g id="Calque_1-2">
				<path d="M104.3,486.2c-2.7-2.3-5.1-4.3-7.7-6.6c-0.7-0.7-1.3-1.4-1.8-2.2c0-1-1.3-2.5-3.3-4.4s-4.8-4-7.5-6.3
			c-5-5.3-6.7-6.5-8.2-5.9l6.7,7.4c1,1.3,2,2.5,3,3.7l3.2,3.6l-3.3-3.5c-1.1-1.1-2.1-2.4-3.2-3.6l-6.4-7.5c-2.8-3.2-4.8-4.2-5.3-3.6
			c1.4,1.9,2.8,3.8,4.3,5.7l4.6,5.5c1,2.4-0.9,1.2-1.2,1.5l3.3,3.6c1.1,1.2,2.3,2.4,3.5,3.5c2.4,2.4,4.8,4.8,7.4,7.2l8,7.2
			c1.3,1.2,2.8,2.4,4.2,3.5l4.3,3.5c1.1,0.9,2.2,1.8,3.4,2.6l3.6,2.5c1.9,0.1,3.6-0.1,5.5-0.1l-1.4-1l3.7-1
			C117,496.7,110.5,491.5,104.3,486.2z M93.3,481.5c-1.8-2-3.6-3.9-5.4-5.9c1.1,1.2,2.3,2.4,3.5,3.7l1.8,1.9
			c0.6,0.6,1.3,1.2,1.9,1.9s1.5,1.4,2.3,2C95.9,484,94.5,482.8,93.3,481.5L93.3,481.5z"></path>
				<path d="M139,514.2c-1.8-1-3.6-2.3-5.7-3.6c-2.6-1.5-5.3-2.9-8-4.2c1.5,1.8,3.3,3.4,5.3,4.6c1.4,0.9,3,1.9,4.8,3
			s4.1,2.2,6.6,3.4C142.6,517.2,140,515.3,139,514.2z"></path>
				<path d="M565.9,299.8c-0.1-1.7-0.1-3.5-0.1-5.8c0-1.1,0-2.4,0-3.8l0.1-2.2v-1.5c0.1-1.1,0.1-2.3,0.1-3.5
			c0-3.4-0.1-6.9-0.2-10.5s-0.5-7.2-0.7-10.7c-0.7-2.5-1.3-4.6-2.2-7.1l-1-9.9c-0.1-1.6-0.5-3.3-0.7-4.9l-0.8-4.9
			c0.4-0.3,0.6-1.5,0.5-3c-0.1-1.8-0.3-3.6-0.9-5.3c-1-1.5-1.9-5.6-2.9-10s-2.8-8.8-4.8-11.2c-0.4-1.3-0.8-3-1.4-4.7l-2.1-6.3
			c-1.1-2.6,0.8,4.8-0.2,2.1c-1-2-2.1-4.9-3.2-7.3s-2.3-4.4-3-4.6c0.2,1.9,0.7,3.8,1.6,5.6c0.9,2.1,2.3,5.2,4.5,10.9
			c-0.2,2.1,0.9,6.6,2.3,11.5l1.1,3.8c0.3,1.3,0.6,2.5,0.9,3.8c0.5,2.2,0.9,4.5,1.2,6.7c1.1,3,2.1,6.4,3.1,9.8
			c0.7,4.4,1.2,6.8,1.5,9.5c0.9,4.1,1.8,7.9,2.6,11.7c-1-1.5-0.8,6.1-1.6,6.3l0.4,6.7c0.1,2,0.1,4.1,0.2,6.1c-0.6-0.1-1.2-0.1-1.8,0
			c-0.6-0.5-0.8-0.7-1.5,5.5c-0.6,1.6-1.2,3.5-1.8,5.1c-0.5,0-0.9,0-1.4-0.1c0.6-1.1,0.8-4.8,0.7-9c0-2.2-0.2-4.4-0.3-6.5
			c-0.2-1.7-0.5-3.5-1-5.1c-0.3,0-0.6,0-0.9-0.1c-1.2-1.1-2.3-2.3-3.3-3.6l-1.1-4.7l-1.3-4.9l-1-7.8c-0.3,0-0.6,0-1.5,0
			c-0.6-3.1-1-6-1.5-8.6c-0.2-1.3-0.5-2.5-0.8-3.7c-0.3-1.1-0.7-2.1-1.1-3.1c-0.8-3.5-1.5-7-2.4-10.5l-3-10.6
			c-0.1-0.5-0.3-1.1-0.4-1.6l-0.5-1.6l-1-3.1l-2-6.3c-0.3-1.1-0.7-2.1-1.1-3.1l-1.2-3.1l-2.2-6.2c-1.3-3.6-2.8-7.1-4.3-10.7
			c-0.7-1.8-1.5-3.5-2.3-5.3l-2.4-5.3c-1.4-3.1-3-6.1-4.5-9.1l-2.3-4.5c-0.8-1.5-1.7-2.9-2.5-4.4c-1-2.8-2.3-5.5-3.7-8.1
			c-1.8-3.1-3.9-6.1-6.1-8.9l-3.8-2.7l-2.8-3.7c2.6,1.6-0.3-2.4-0.8-3.7c-0.5-0.7-1.1-1.3-1.6-2l-1.7-1.9c-1.1-1.2-2.3-2.4-3.4-3.6
			c-0.7-1.8-1.1-3.4-1.7-5c-1.6-1.9-3.3-3.6-4.9-5.4l-2.4-2.7c-0.8-0.9-1.6-1.8-2.5-2.7c-1.3-1.5-2.8-2.8-4.5-3.9l-0.5-0.6l-1.1-1.4
			l-1.4-1.5l-6.2-5.8l-1.6-1.4l-1.6-1.4l-3.1-2.7c-1.6-1.6-3.1-3.2-4.8-4.7l-1.9-1.7c1.1,0.3,2.2,0.7,3.5,1.2l1.1-0.3l-2.5-2.1
			c-0.8-0.7-1.6-1.3-2.4-1.9c-4-2.9-5.6-3.3-7-3.6l-0.8-0.1c-2.1-1.7-4.4-3.3-6.5-4.9c-1-0.7-1.9-1.5-2.9-2.1l-3-2l-5.9-4l-1.5-1
			l-1.4-0.9l-0.7-0.4l-1.9-3c-3.9-2.1-7.6-4-11.6-6c-4.2-2-8.8-4.3-13.1-6.3l-3-1.2l-1.3-0.6c-1.7-0.7-3.3-1.4-5-2l-5.8-2.3
			c0.6-1.7-7.5-4-10.2-4.3c-1.2-0.4-2.5-0.9-3.7-1.3l-0.4-0.1l-0.4-0.2l-0.5-0.1l-2.6-0.8l-7.6-2.2c-2.5-0.7-5.1-1.2-7.7-1.9
			l-3.8-0.9c-1.3-0.3-2.6-0.6-3.9-0.8l-7.7-1.7c-0.5-0.6-1.2-0.9-2-1.1c-0.6-0.2-1.2-0.4-1.8-0.5c-0.6-0.1-1.4-0.2-2.1-0.3
			c-1.6-0.2-3.3-0.4-4.8-0.4l1.1-1.1c3.4,0.5,6.8,1,9.8,1.6l8.7,2l4.3,1l4.4,1.2c0.4-0.3,0.8-0.6,1.2-0.9c1.8,0.3,3.5,0.7,5,1
			l2.8,1.2c0.9,0.4,1.8,0.9,2.7,1.3l5.4,2.7c1.3,0.1,2.6,0.1,3.9,0.3c1.1,0.3,2.1,0.5,3,0.8l2.5,0.7c1.5,0.4,2.7,0.7,3.6,0.8
			c1.9,0.3,2.7,0.1,2.9-0.6c2.8,0.8,5.5,1.8,8.3,2.7c4.1,1.8,8.6,4,14.7,6.6c1.4,1.3,3,2.4,4.8,3.2c1.3,0.7,2.8,1.5,4.5,2.3
			c0.9,0.4,1.7,0.8,2.6,1.3l2.9,1.4c-1.2-1.6-2.8-2.9-4.6-3.8c-1-0.5-2.1-1.1-3.4-1.7l2,0.8c-1-1-2.1-1.8-3.3-2.5
			c-1.5-0.8-3.2-1.7-5.2-2.6s-4.2-1.9-6.5-2.8s-4.9-1.8-7.5-2.7l-2.2-0.9c-1.6-0.9-3.1-1.7-4.6-2.5c-1.8-0.9-3.6-1.8-5.5-2.5
			c-2.4-1-5-1.6-7.6-1.9l-0.3-0.1l-2.9-1c-1.1-0.2-2.3-0.4-3.3-0.7l-1.3,0.9c-2.3-0.7-4.3-1.4-6.6-2c-1.2-0.7-2.4-1.2-3.7-1.6
			c0.9,0.2,1.9,0.4,2.8,0.6c2.1,0.4,4.5,0.9,7,1.2l-5-2.1l-2.5-1c-0.9-0.3-1.7-0.6-2.6-0.9c0.2-0.4,0.3-0.8,0.5-1.2
			c0-0.1,0.1-0.2,0.1-0.2c-1.6-0.5-3.2-1-4.8-1.5l-4-0.9c-1.3-0.3-2.6-0.6-4-0.9c-3.8-0.6-2.5,0.8-5.3,0.9c-1.5-0.5-2.9-1.2-4.3-2
			c-0.8-0.4-1.7-0.8-2.6-1c-1.3-0.3-2.7-0.5-4-0.6c-3.1-0.3-6.5-0.7-9.9-1L300.3,0c0,0.1-0.1,0.3-0.1,0.3c-1.2,0.1-2.4,0.2-3.5,0.3
			l-3.5,0.5l-7-0.2l-3.5-0.1c-1.2,0-2.4,0-3.5,0.1c-2.4,0-4.7,0.1-6.9,0.1H271c0,0,0-0.1,0.1-0.1c-1.8-0.6-3.7-0.9-5.7-0.8
			c-1.9,0.1-3.8,0.4-5.6,1l-5.1,0.3c-1.7,0.1-3.3,0.3-5.1,0.5l-2.2,0.7c-2.6,0.3-5.1,0.6-7.6,1c-1.5-0.3-1.5-0.7-3.1-0.8L228.2,4
			L226,4.4c-0.7,0.1-1.4,0.3-2.1,0.4l-4.1,0.9c-4.5,1-9.7,2-9.6,1.1c-2.1,0.6-4.5,1.1-7.4,1.9c-1.5,0.4-3.1,0.8-5,1.4
			s-3.8,1.4-6,2.3l-4.3,2c-1.4,0.7-2.9,1.3-4.3,2c-1.3,0.4-6.2,1.1-9.9,4.3c0.3,0.1,0.7,0.2,1,0.3c-8.7,3.6-17.1,7.6-25.4,12.1
			c-2.6,0.8-4.1,0.6-7.5,2.9c-2,1.6-5.5,3.6-6.6,5.4l-6.4,3.5l-6.1,3.7l-4.5,2.9c-1.5,1-2.9,2.1-4.4,3.1l-4.3,3.2
			c-1.4,1.1-2.9,2.1-4.3,3.3l-7.8,6c-1,1-1.9,1.9-2.8,2.9l-2.9,3.2c-1.7,1.7-3.5,3.3-5.3,5l-5.2,5.4c-1.3,1.3-3,2.7-4.3,4.2
			c-1.2,1.3-2.4,2.7-3.3,4.2c-2.4,2.5-4.8,4.8-6.8,7.1c1.8-3.1-1.3-1,0.3-4.3c-1.7,1.2-4.3,5-6.3,7.4c-1.2,2.2-2.3,4.1-3.3,6.4
			l-0.8,1.1c0-1.5-1.9,0.5-3.1,1.7c-1,1.4-2,2.8-3.1,4.5c-1.4,2.3-2.6,4.6-3.7,7c-2.1,2.7-3.3,3.9-4.4,5.2c-2,3.7-5.9,9-6.2,11.8
			l-4.4,9.1l-1.4,2.5c-0.5,0.8-0.9,1.7-1.3,2.6l-2.5,5.1c-1,1.5-1.9,3.1-2.6,4.8c-0.8,2-1.6,4.1-2.3,5.9l-0.9,4.3
			c-0.3,1.4-0.6,2.8-0.8,4.3L16,189.1c-0.6,1.7-1,3.4-1.5,5.1l-1.4,5.1l-0.1,0.5c-1.1,0.5-1.4-1-3.2,0.8L7,212.7
			c-0.2,0.7-0.3,1.4-0.5,2l-0.4,1.9L5.5,220c-0.4,2.2-0.9,4.2-1.6,6.5l-0.2,1.8l-0.2,1.9L3.3,234c-0.6,3.1-1.4,6.3-1.9,9
			c-0.4,2-0.6,4-0.6,6.1c-0.7,3.5-0.9,7.2-0.7,10.8c0.1,1.7,0.1,3.5,0.1,5.8c0,1.1,0,2.4,0,3.8l-0.1,2.2c0,0.5,0,1,0,1.5
			C0,274.3,0,275.5,0,276.7c0,3.4,0.1,6.9,0.2,10.5s0.5,7.2,0.7,10.7c0.7,2.5,1.3,4.6,2.2,7.1l1,9.9c0.1,1.6,0.4,3.3,0.7,4.9
			l0.8,4.9c-0.4,0.3-0.6,1.5-0.5,3c0.1,1.8,0.3,3.6,0.9,5.3c1,1.5,1.9,5.6,2.9,10s2.8,8.8,4.8,11.2c0.4,1.3,0.8,3,1.4,4.7l2.1,6.2
			c1.1,2.6-0.8-4.8,0.2-2.1c1,2,2.1,4.9,3.2,7.3s2.3,4.4,3,4.6c-0.2-1.9-0.7-3.8-1.6-5.6c-0.9-2.1-2.3-5.2-4.5-10.9
			c0.2-2.1-0.9-6.6-2.3-11.5l-1.1-3.8c-0.3-1.3-0.6-2.5-0.9-3.8c-0.5-2.2-0.9-4.5-1.1-6.7c-1.1-3-2.1-6.4-3.1-9.8
			c-0.7-4.4-1.2-6.8-1.5-9.5c-0.9-4.1-1.8-7.9-2.6-11.7c1,1.5,0.8-6.1,1.6-6.3L6,288.6c-0.1-2-0.1-4.1-0.2-6.1
			c0.6,0.1,1.2,0.1,1.8,0c0.6,0.5,0.9,0.7,1.5-5.5c0.6-1.6,1.2-3.5,1.8-5.1c0.5,0,0.9,0,1.4,0.1c-0.6,1.1-0.8,4.8-0.7,9
			c0,2.2,0.2,4.4,0.4,6.5c0.2,1.7,0.5,3.5,1,5.1c0.3,0,0.6,0,0.9,0.1c1.2,1.1,2.3,2.3,3.3,3.6l1.1,4.7l1.4,4.9l1,7.8
			c0.3,0,0.6,0,1.5,0c0.6,3,1,6,1.5,8.6c0.2,1.3,0.5,2.5,0.8,3.7c0.3,1.1,0.7,2.1,1.1,3.1c0.8,3.5,1.5,7,2.4,10.5l3,10.6
			c0.1,0.5,0.3,1.1,0.4,1.6l0.5,1.6l1,3.1l2,6.3c0.3,1.1,0.7,2.1,1.1,3.1l1.2,3.1l2.2,6.2c1.3,3.6,2.8,7.1,4.3,10.7
			c0.7,1.8,1.5,3.5,2.3,5.3l2.4,5.3c1.4,3.1,3,6.1,4.5,9.1l2.3,4.5c0.8,1.5,1.7,2.9,2.5,4.4c1,2.8,2.3,5.5,3.7,8.1
			c1.8,3.1,3.9,6.1,6.1,8.9l3.8,2.7l2.7,3.7c-2.6-1.6,0.3,2.4,0.8,3.7c0.6,0.6,1.1,1.3,1.6,2l1.7,1.9c1.1,1.2,2.3,2.4,3.4,3.6
			c0.7,1.8,1.1,3.4,1.7,5c1.6,1.9,3.3,3.6,4.9,5.4l2.4,2.6c0.8,0.9,1.6,1.8,2.5,2.7c1.3,1.5,2.8,2.8,4.5,3.9l0.5,0.6l1.2,1.5
			l1.4,1.5l6.2,5.8l1.6,1.5l1.6,1.4l3.2,2.7c1.6,1.6,3.1,3.2,4.8,4.7l1.9,1.7c-1.1-0.3-2.2-0.7-3.5-1.2l-1.1,0.3l2.6,2.1
			c0.8,0.7,1.6,1.3,2.4,1.9c4,2.9,5.6,3.3,7,3.6l0.8,0.1c2.2,1.7,4.3,3.3,6.5,4.9c1,0.7,1.9,1.5,2.9,2.1l3,2l5.9,4l1.4,1l1.5,0.9
			l0.7,0.4l1.9,3c3.9,2.1,7.6,4,11.6,6c4.2,2,8.8,4.3,13.1,6.3l3,1.2l1.3,0.6c1.7,0.7,3.3,1.3,5,2l5.8,2.3c-0.6,1.7,7.4,4,10.2,4.3
			c1.2,0.4,2.5,0.9,3.7,1.3l0.4,0.1l0.4,0.2l0.5,0.1l2.6,0.8l7.6,2.2c2.5,0.7,5.1,1.2,7.7,1.9l3.8,0.9c1.3,0.3,2.6,0.6,3.9,0.8
			l7.7,1.7c0.5,0.6,1.2,0.9,2,1.1c0.6,0.2,1.2,0.4,1.8,0.5c0.6,0.1,1.4,0.2,2.1,0.3c1.6,0.2,3.3,0.4,4.8,0.4l-1.1,1.1
			c-3.4-0.5-6.8-1-9.8-1.5l-8.7-2l-4.3-1l-4.4-1.2c-0.4,0.3-0.8,0.6-1.2,0.9c-1.8-0.3-3.5-0.7-5-1l-2.8-1.2
			c-0.9-0.4-1.8-0.9-2.7-1.3l-5.4-2.7c-1.3-0.1-2.6-0.2-3.9-0.3c-1.1-0.3-2.1-0.5-3-0.8l-2.5-0.7c-1.5-0.4-2.7-0.7-3.6-0.8
			c-1.9-0.3-2.7-0.1-2.9,0.7c-2.8-0.8-5.5-1.8-8.3-2.7c-4.1-1.8-8.6-4-14.7-6.6c-1.5-1.3-3.1-2.4-4.8-3.2c-1.3-0.7-2.8-1.5-4.6-2.3
			c-0.9-0.4-1.7-0.8-2.6-1.3l-2.9-1.4c1.2,1.6,2.8,2.9,4.6,3.8c1,0.5,2.1,1.1,3.4,1.7l-2-0.8c1,1,2.1,1.8,3.3,2.5
			c1.4,0.8,3.2,1.7,5.2,2.6s4.2,1.8,6.5,2.8s4.9,1.8,7.5,2.7l2.2,0.9c1.6,0.9,3.1,1.7,4.6,2.5c1.8,0.9,3.6,1.8,5.5,2.5
			c2.4,1,5,1.6,7.6,2l0.3,0.1l2.9,1c1.1,0.2,2.3,0.4,3.3,0.7l1.3-0.9c2.3,0.7,4.3,1.4,6.6,2c1.2,0.7,2.4,1.2,3.7,1.6
			c-0.9-0.2-1.9-0.3-2.8-0.6c-2.1-0.4-4.5-0.9-7-1.2l5.1,2.1l2.6,1c0.9,0.3,1.7,0.6,2.6,0.9c-0.2,0.4-0.3,0.8-0.5,1.2
			c0,0.1-0.1,0.2-0.1,0.2c1.6,0.5,3.2,1,4.8,1.5l4,0.9c1.3,0.3,2.6,0.6,4,0.9c3.8,0.6,2.5-0.8,5.3-0.9c1.5,0.5,2.9,1.2,4.3,2
			c0.8,0.4,1.7,0.8,2.6,1c1.3,0.3,2.7,0.5,4,0.6c3.1,0.3,6.5,0.7,9.9,1l9.6,0.5c0-0.1,0.1-0.3,0.1-0.3c1.2-0.1,2.4-0.2,3.5-0.3
			l3.5-0.5l7,0.2l3.5,0.1c1.2,0,2.4,0,3.5-0.1c2.4,0,4.7-0.1,6.9-0.1h1.2c0,0,0,0.1-0.1,0.1c1.8,0.6,3.8,0.9,5.7,0.8
			c1.9-0.1,3.8-0.4,5.6-1l5.1-0.3c1.7-0.1,3.3-0.3,5.1-0.5l2.2-0.7c2.6-0.3,5.1-0.6,7.6-1c1.5,0.3,1.5,0.7,3.1,0.8l8.6-1.5l2.1-0.4
			c0.7-0.1,1.4-0.3,2.1-0.5l4.1-0.9c4.5-1,9.7-2,9.5-1.1c2.1-0.6,4.5-1.1,7.4-1.9c1.5-0.4,3.1-0.8,5-1.4s3.8-1.4,6-2.3l4.3-2
			c1.5-0.7,2.9-1.3,4.3-2c1.3-0.4,6.2-1.1,9.9-4.3c-0.3-0.1-0.7-0.2-1-0.3c8.7-3.6,17.2-7.6,25.4-12.1c2.6-0.8,4.1-0.6,7.5-2.9
			c2-1.6,5.5-3.6,6.6-5.4l6.5-3.6l6.1-3.7l4.5-2.9c1.5-1,2.9-2.1,4.4-3.1l4.3-3.2c1.4-1.1,2.9-2.1,4.3-3.3l7.9-6
			c1-1,1.9-1.9,2.8-2.9l2.9-3.2c1.7-1.7,3.5-3.3,5.3-5l5.2-5.4c1.4-1.3,3-2.7,4.3-4.2c1.2-1.3,2.4-2.7,3.3-4.2
			c2.4-2.5,4.8-4.8,6.8-7.1c-1.8,3.1,1.3,1-0.3,4.3c1.7-1.2,4.3-5,6.3-7.4c1.2-2.2,2.3-4.1,3.4-6.5l0.8-1.1c0,1.5,1.9-0.5,3.1-1.7
			c1-1.4,2-2.8,3.1-4.5c1.4-2.3,2.6-4.6,3.7-7c2.1-2.7,3.3-3.9,4.4-5.2c2-3.7,5.9-9,6.2-11.8l4.4-9.1l1.4-2.5
			c0.5-0.8,0.8-1.7,1.3-2.5l2.5-5.1c1-1.5,1.9-3.1,2.6-4.8c0.8-2,1.6-4.1,2.3-5.9l0.9-4.3c0.3-1.4,0.6-2.8,0.8-4.3l3.4-10.4
			c0.6-1.7,1-3.5,1.5-5.1l1.4-5.1l0.1-0.5c1.1-0.5,1.4,1,3.2-0.8L559,347c0.2-0.7,0.3-1.4,0.5-2l0.4-1.9l0.7-3.4
			c0.4-2.2,0.9-4.2,1.6-6.5l0.2-1.8l0.2-1.9l0.3-3.7c0.6-3.1,1.3-6.3,1.9-9c0.4-2,0.6-4,0.6-6.1
			C565.8,307.1,566.1,303.4,565.9,299.8z M305.7,3.5c1.5,0,3.3-0.1,5.2,0s4,0.1,6.5,0.1l5.7,0.9c1.9,0.3,3.7,0.8,5.6,1.1l5.5,1.2
			l2.8,0.6l2.8,0.7c0.5,0.6,1.2,1,2,1.2h-0.1c-4.3-0.8-9.1-1.4-13.7-2.1c-2.9-0.6-5.9-0.9-8.9-1.4s-6-1-8.9-1.2
			c-3.6-0.2-7.1-0.5-10.3-0.7c-0.8-0.1-1.7-0.1-2.5-0.1l0.5-0.3C300.1,3.5,302.6,3.5,305.7,3.5z M43.7,132.3l-0.3,0.4l-0.3,0.3
			c0.3-0.5,0.6-0.9,0.9-1.4C43.9,131.8,43.8,132,43.7,132.3z M64.2,412.5l-2.3-2.6c-0.8-0.9-1.6-1.8-2.3-2.7l-1.5-2.8l-3-5.8
			l-0.8-1.5l-0.7-1.5l-1.5-3.1l-3-6.3c-0.9-2.1-1.8-4.3-2.7-6.5s-1.8-4.3-2.7-6.5l-2.4-6.5c-1.7-4.3-2.9-8.6-4.2-12.7
			c-0.4-0.4-0.8-0.9-1.1-1.4c-0.3-0.8-0.6-1.7-0.8-2.6l-0.8-3.1c-0.5-2.3-1.2-5.1-2-9.2l2.1-0.2c-0.2-2.5-0.5-5-0.8-7.5
			c-0.8-2.5-1.3-4.6-2.2-5.8c-0.3-3.4-0.8-7.2-1.4-11.2s-0.9-8.2-1.5-12.2c-0.2-1-0.2-2-0.3-3l-0.3-2.9c-0.2-1.9-0.4-3.8-0.7-5.5
			l-0.4-2.5l-0.2-2.3c-0.1-0.6-0.1-1.1-0.2-1.6c0.2,0.5,0.5,0.9,0.9,1.2c0-2.6,0-5.2,0.1-7.8c0.1-1.1,0.3-2.2,0.7-3.3
			c0.3-0.7,0.6-1,0.8-1.5c0.5-1,0.9-2.4,1.1-7.5c-0.3-0.6-0.5-1.2-0.5-1.9c-0.1-1.1-0.1-2.1-0.1-3.2c0-2.2,0-4.3-0.7-4.4
			c0.3-2.8,0.6-5.5,1-8l1.5-7.2c0.8-4.7,2-9,2.7-13.6c0.8-3.5,1.4-6.1,1.9-8.5s0.8-4.5,1.6-7.2c0-2.3,3.6-8.9,2-8.1
			C43.1,189,48.2,177.6,54,166c-1.7-0.6-0.1-3.9,2.4-7.5s5.3-7.9,6-10.7c1.2-1,2.3-2.1,3.1-3.5c0.5-0.7,1-1.5,1.5-2.4l0.8-1.3
			l0.8-1.3c1.1-1.8,2.2-3.6,3.5-5.3c0.6-0.9,1.3-1.7,1.9-2.5c0.6-0.8,1.3-1.5,2.1-2.1c2.3-3.2,4.7-6.5,7.3-9.8s5.3-6.4,8.1-9.6
			s5.7-6.1,8.6-9s5.9-5.5,8.7-8c1.7-1.6,3.3-3.1,5-4.7l2.6-2.3c0.8-0.8,1.7-1.5,2.6-2.2c1.8-1.4,3.6-2.8,5.5-4.3l2.8-2.1
			c0.9-0.7,1.9-1.3,2.9-2c3.9-2.6,7.9-5.4,12.2-7.9l6.5-3.9l6.9-3.8c0.1-0.9,3.4-2.4,4.2-3.6l11.1-5.4l11.5-5l10.2-3.9
			c1.8-0.7,3.7-1.2,5.6-1.9l5.8-1.8c7.8-2.3,15.8-4.2,22.7-5.5c1.2-0.5,2.5-0.9,3.7-1.1c1.5-0.4,2.9-0.8,3-1.7
			c2.2,0.1,4.5,0,6.7-0.2c1.4-0.2,2.7-0.4,4.1-0.7c1.5-0.3,3-0.6,4.5-1.1c2.2,0,4.3-0.1,6.4-0.4c2.2-0.2,4-0.2,3.8,0.4
			c2-0.2,6.2,0,6.2-0.6c1.4-0.3,2.9-0.5,4.4-0.5c1.7-0.1,3.5,0.1,5.1,0c2.8-0.3,5.2-0.6,8.3-0.9c-1,0.7,0.7,0.9,2.6,1
			c1.5,0.2,3,0.1,4.5-0.1c1.8-0.2,3.6-0.2,5.4-0.1h1.6c0.5,0,1.1,0,1.6,0c1,0,2-0.2,2.9-0.5l1.6,0.2c1.9,0.7,4,1.3,6,1.6
			c1.5,0.4,3.1,0.3,4.5-0.1c1.7,0.3,3,0.8,4.7,1.1c2.7,0.3,5.3,0.4,8,0.2c1.7,0.2,3.3,0.5,4.7,0.6c-2.5,0.5,2.5,1.2,1.7,1.9
			c3,0.3,6,0.8,8.9,1.6c3.2,0.8,6.7,1.6,10.1,2.8l5.1,1.6c1.7,0.5,3.3,1,4.9,1.6c2.8,1,5.7,1.9,8.7,2.6c1.9,0.7,3.8,1.5,5.6,2.3
			l5.5,2.4c1.2,0.4,2.4,1,3.6,1.6c1.1,0.9,2.4,1.7,3.8,2.1l1.2,0.3l0.1,0c1.5,0.7,3,1.4,4.5,2c1,0.4,1.9,0.8,2.8,1.1
			c0.8,0.6,1.5,1.3,2.2,2c1,1.3,2.2,2.5,3.6,3.5c1.1,0.8,2.2,1.4,3.4,2c1.4,0.7,3.1,1.4,5.2,2.4c4,2.1,7.8,4.6,11.3,7.5
			c3.1,2.6,5.9,5.1,8.3,7.4c1.3,1.4,2.6,2.7,4.1,3.8c1.3,0.9,2.4,1.6,3.5,2.3c2.4,1.3,4.7,2.8,6.8,4.5c0,0.4,0.7,1.2,1.3,1.9
			s1.2,1.5,0.9,1.7c1.6,1.4,4.2,4.4,4.4,3.8c1.1,0.7,2.1,1.5,3,2.4c0.7,0.8,1.4,1.6,2,2.4c1.2,1.8,2.6,3.5,4.1,5
			c1.1,0.8,1.9,1.8,2.4,3c0.2,0.6-0.1,0.9-0.5,0.8l6.5,7.5c-0.7,0.2,3.5,5.1,7.1,9.7c1.5,2.9,5.8,7.9,5,8.6c1.4,1.9,2.5,3.8,4,6.1
			l3,4.8c1.2,2.1,2.3,4.2,3.4,6.3l1.7,3.2l0.9,1.6l0.8,1.6c2.2,5.4,4.1,9.1,5.7,13l2.6,6c0.9,2.2,1.7,4.6,2.6,7.4
			c-0.5,0.4-0.4,1.3-0.3,2.6c0.1,0.6,0.2,1.3,0.4,2.1s0.2,1.6,0.3,2.5l-1.5,0.3c0.2,3.1,1.4,6.4,2.7,9.8c1.3,3.4,2.2,6.9,2.8,10.5
			c1.7,3.7,2.8,14,4.3,13.7c0.5-1.8-0.5-5.2-1.2-8.4l-0.3-5c-0.1-1.7-0.4-3.3-0.6-5c0.6-0.1,1.2-0.1,1.8-0.2
			c0.6,1.1,1.2,1.9,1.7,2.8c1,2.9,1.7,5.6,2.6,8.5c0.3,1.3,0.7,2.9,1,4.5c0.2,1.4,0.7,2.8,1.3,4.1l1,5.7c0.3,2.1,0.4,4.3,0.7,6.4
			l0.6,6.4c0.2,1,0.2,2.1,0.3,3.2l0.3,3.3l0.6,6.5c-0.5,2.4-0.1,6.9,0.5,13.1c0.2-4.2,0.3-8.4,0.4-13l-0.4-8l-0.2-4l-0.4-4l-0.5-4.2
			l-0.1-2.8l-0.1-1.4l-0.1-1.4c-0.2-1.9-0.4-3.7-0.7-5.6s-0.5-3.8-0.9-5.8s-0.9-4-1.4-6l-0.5-5c-0.2-1.6-0.5-3.3-0.7-4.9
			c0.7-0.1,1.2-0.1,1.5-0.2l-1.2-5.1l-0.6-2.5l-0.7-2.5c-1-3.3-2-6.6-3-10c-1-2.7-2-5.2-2.8-7.6l-1.3-3.4l-1.3-3.3l-2.4-6.6
			c-0.4-1.1-0.9-2.2-1.3-3.3l-1.5-3.3c-0.8-1.5-1.6-3-2.3-4.4l-0.5-1.1l-0.6-1.1l-1.1-2.2c-0.7-1.5-1.5-2.9-2.1-4.4l-0.7-1.5
			c1.2,0.9,2.2,1.6,3.3,2.4l2.3,2.6c0.8,0.9,1.6,1.8,2.3,2.7l1.5,2.8l3,5.8l0.8,1.5l0.7,1.5l1.5,3.1l3,6.3c0.9,2.1,1.8,4.3,2.7,6.5
			s1.8,4.3,2.7,6.5l2.4,6.5c1.7,4.3,2.9,8.6,4.2,12.7c0.4,0.4,0.8,0.9,1.1,1.4c0.3,0.8,0.6,1.7,0.8,2.6l0.8,3.1
			c0.5,2.3,1.2,5.1,2,9.2l-2.1,0.2c0.2,2.5,0.5,5,0.8,7.5c0.8,2.5,1.3,4.6,2.2,5.8c0.3,3.4,0.8,7.2,1.4,11.2s0.9,8.2,1.5,12.2
			c0.2,1,0.2,2,0.3,3l0.3,2.9c0.2,1.9,0.4,3.8,0.7,5.5l0.4,2.5l0.3,2.4c0.1,0.6,0.1,1.1,0.2,1.6c-0.2-0.5-0.5-0.9-0.9-1.2
			c0,2.6,0,5.2-0.1,7.8c-0.1,1.1-0.3,2.2-0.7,3.3c-0.3,0.7-0.6,1-0.8,1.5c-0.5,1-0.9,2.4-1.2,7.5c0.3,0.6,0.4,1.3,0.4,1.9
			c0.1,1.1,0.1,2.1,0.1,3.2c0,2.2,0,4.3,0.7,4.4c-0.3,2.8-0.6,5.5-1,8l-1.5,7.2c-0.8,4.7-2,9-2.7,13.6c-0.8,3.5-1.4,6.1-1.9,8.5
			s-0.8,4.5-1.6,7.2c0,2.3-3.6,8.9-2,8.1c-3.2,12.9-8.3,24.3-14.1,35.9c1.7,0.6,0.1,3.9-2.4,7.5s-5.3,8-6,10.7
			c-1.2,1-2.3,2.1-3.1,3.5c-0.5,0.7-1,1.5-1.5,2.4l-0.8,1.3l-0.8,1.3c-1.1,1.8-2.2,3.6-3.5,5.3c-0.6,0.9-1.3,1.7-1.9,2.5
			c-0.6,0.8-1.3,1.5-2.1,2.1c-2.3,3.2-4.7,6.5-7.3,9.8s-5.3,6.5-8.1,9.6s-5.7,6.1-8.6,9s-5.9,5.5-8.7,8c-1.7,1.6-3.3,3.1-5,4.7
			l-2.6,2.3c-0.9,0.8-1.7,1.5-2.6,2.2c-1.8,1.4-3.6,2.8-5.5,4.3l-2.8,2.1c-0.9,0.7-1.9,1.3-2.9,2c-3.9,2.6-7.9,5.4-12.2,7.9
			l-6.5,3.9l-6.9,3.8c-0.1,0.9-3.4,2.4-4.2,3.6l-11.1,5.4l-11.5,5l-10.2,3.9c-1.8,0.7-3.7,1.2-5.6,1.9l-5.7,1.9
			c-7.8,2.3-15.8,4.2-22.7,5.5c-1.2,0.5-2.5,0.9-3.7,1.1c-1.5,0.4-2.9,0.8-3,1.7c-2.2-0.1-4.5,0-6.7,0.2c-2.9,0.4-5.7,1-8.5,1.8
			c-2.2,0-4.3,0.1-6.4,0.4c-2.2,0.2-4,0.2-3.8-0.4c-2,0.2-6.2,0-6.2,0.6c-1.4,0.3-2.9,0.5-4.4,0.5c-1.7,0.1-3.5-0.1-5.1,0
			c-2.8,0.3-5.2,0.6-8.3,0.9c1-0.7-0.7-0.9-2.6-1c-1.5-0.2-3-0.1-4.5,0.1c-1.8,0.2-3.6,0.2-5.4,0.1h-1.6c-0.5,0-1.1,0-1.6,0
			c-1,0-2,0.2-2.9,0.5l-1.6-0.2c-1.9-0.7-4-1.3-6-1.6c-1.5-0.4-3.1-0.3-4.6,0.1c-1.7-0.3-3-0.8-4.7-1.1c-2.7-0.3-5.3-0.4-8-0.2
			c-1.7-0.2-3.3-0.5-4.7-0.7c2.5-0.5-2.5-1.2-1.7-1.9c-3-0.3-6-0.8-8.9-1.6c-3.2-0.8-6.7-1.6-10.1-2.8l-5.1-1.6
			c-1.7-0.5-3.3-1-4.9-1.6c-2.8-1-5.7-1.9-8.7-2.6c-1.9-0.7-3.8-1.5-5.6-2.3l-5.6-2.4c-1.2-0.4-2.4-1-3.6-1.6
			c-1.1-0.9-2.4-1.7-3.8-2.1l-1.2-0.3l-0.1,0c-1.5-0.7-3-1.4-4.5-2c-1-0.4-1.9-0.8-2.8-1.1c-0.8-0.6-1.5-1.4-2.1-2.1
			c-1-1.3-2.2-2.5-3.6-3.5c-1.1-0.8-2.2-1.4-3.4-2c-1.4-0.7-3.1-1.4-5.2-2.4c-4-2.1-7.8-4.6-11.3-7.5c-3.1-2.6-5.9-5-8.3-7.4
			c-1.3-1.4-2.6-2.7-4.1-3.8c-1.3-0.9-2.4-1.6-3.5-2.3c-2.4-1.3-4.7-2.8-6.8-4.5c0-0.4-0.7-1.2-1.3-1.9s-1.2-1.5-0.9-1.7
			c-1.6-1.4-4.2-4.4-4.4-3.8c-1.1-0.7-2.1-1.5-3-2.4c-0.7-0.8-1.4-1.6-2-2.5c-1.2-1.8-2.6-3.5-4.1-5c-1.1-0.8-1.9-1.8-2.4-3
			c-0.2-0.6,0.1-0.9,0.5-0.8l-6.4-7.5c0.7-0.2-3.5-5.1-7.1-9.7c-1.6-2.9-5.8-7.9-5-8.6c-1.4-1.9-2.5-3.8-4-6.1l-3-4.8
			c-1.2-2.1-2.3-4.2-3.4-6.3l-1.8-3l-0.9-1.6l-0.8-1.7c-2.2-5.4-4.1-9.1-5.7-13l-2.6-6c-0.9-2.2-1.7-4.6-2.6-7.4
			c0.5-0.4,0.4-1.3,0.3-2.5c-0.1-0.6-0.2-1.3-0.3-2.1s-0.2-1.6-0.3-2.5l1.5-0.3c-0.2-3.1-1.4-6.4-2.7-9.8c-1.3-3.4-2.2-6.9-2.8-10.5
			c-1.7-3.7-2.8-14-4.3-13.7c-0.5,1.8,0.5,5.2,1.2,8.4l0.3,5c0.1,1.7,0.4,3.3,0.6,5c-0.6,0.1-1.2,0.1-1.8,0.2
			c-0.6-1.1-1.2-1.9-1.7-2.8c-1-2.9-1.7-5.6-2.6-8.5c-0.3-1.3-0.7-2.9-1-4.5c-0.2-1.4-0.7-2.8-1.3-4.1l-1-5.7
			c-0.3-2.1-0.4-4.3-0.7-6.4l-0.6-6.4c-0.2-1-0.2-2.1-0.3-3.2l-0.3-3.3l-0.6-6.5c0.5-2.4,0.1-6.9-0.5-13.1c-0.2,4.2-0.3,8.4-0.4,13
			l0.4,8l0.2,4l0.4,4l0.5,4.2l0.1,2.8l0.1,1.4l0.1,1.4c0.2,1.9,0.4,3.7,0.7,5.6s0.5,3.8,0.9,5.8s0.9,4,1.4,6l0.5,5
			c0.2,1.6,0.5,3.3,0.7,4.9c-0.7,0.1-1.2,0.1-1.5,0.2l1.2,5.1l0.6,2.5l0.7,2.5c1,3.3,2,6.6,3,10c1,2.7,2,5.2,2.8,7.6l1.2,3.5
			l1.3,3.3l2.4,6.6c0.4,1.1,0.8,2.2,1.3,3.3l1.5,3.3c0.8,1.5,1.6,3,2.3,4.4l0.5,1.1l0.6,1.1l1.1,2.1c0.7,1.5,1.5,2.9,2.2,4.4
			l0.7,1.5C66.3,414,65.3,413.2,64.2,412.5L64.2,412.5z M260.2,556.1c-1.5,0-3.3,0.1-5.2,0s-4.1-0.1-6.5-0.1l-5.7-0.9
			c-1.9-0.3-3.7-0.8-5.6-1.1l-5.6-1.2l-2.8-0.6l-2.8-0.8c-0.5-0.6-1.2-1-1.9-1.2h0.1c4.3,0.8,9.1,1.3,13.7,2.1
			c2.9,0.6,5.9,1,8.9,1.4s6,1,8.9,1.2c3.6,0.2,7.1,0.5,10.3,0.7c0.8,0.1,1.7,0.1,2.5,0.1l-0.5,0.3
			C265.8,556.2,263.4,556.1,260.2,556.1L260.2,556.1z M522.2,427.4l0.3-0.4l0.3-0.3c-0.3,0.5-0.6,0.9-0.9,1.4
			C522,427.8,522.1,427.6,522.2,427.4L522.2,427.4z"></path>
				<path d="M461.7,73.5c2.7,2.3,5.1,4.3,7.7,6.6c0.7,0.7,1.3,1.4,1.8,2.2c0,1,1.3,2.6,3.4,4.4s4.8,4,7.5,6.3
			c5,5.3,6.7,6.5,8.2,5.9l-6.6-7.4c-1-1.3-2-2.5-3-3.7l-3.1-3.6l3.3,3.5c1.1,1.2,2.1,2.4,3.2,3.6l6.4,7.5c2.8,3.2,4.8,4.2,5.3,3.6
			c-1.4-1.9-2.8-3.8-4.3-5.7l-4.6-5.5c-1-2.4,0.9-1.2,1.2-1.5l-3.3-3.6c-1.1-1.2-2.3-2.3-3.5-3.5c-2.4-2.3-4.8-4.8-7.4-7.2l-8-7.2
			c-1.3-1.2-2.8-2.4-4.2-3.5l-4.3-3.5c-1.1-0.9-2.2-1.8-3.4-2.6L450,56c-1.9-0.1-3.6,0.1-5.5,0.1l1.4,1l-3.7,1
			C449,63,455.4,68.1,461.7,73.5z M472.7,78.2c1.8,2,3.6,3.9,5.4,5.9c-1.1-1.2-2.3-2.4-3.5-3.7l-1.8-1.9c-0.6-0.6-1.3-1.2-1.9-1.8
			s-1.5-1.4-2.3-2C470.1,75.6,471.5,76.8,472.7,78.2L472.7,78.2z"></path>
				<path d="M426.9,45.5c1.8,1,3.5,2.3,5.7,3.6c2.6,1.5,5.3,2.9,8,4.2c-1.5-1.8-3.3-3.3-5.3-4.5c-1.4-0.9-3-1.9-4.8-3
			s-4.1-2.2-6.6-3.4C423.3,42.5,426,44.4,426.9,45.5z"></path>
			</g>
		</svg>
	</g>
	<g data-refid="icon" fill="green" data-box="109.19 83.14 81.90 81.90 " transform="matrix(2.559375 0 0 2.559375 109.19310371749394 83.13856910301183)">
		<svg
      xmlns="http://www.w3.org/2000/svg"
      xmlns:xlink="http://www.w3.org/1999/xlink" version="1.1" x="0px" y="0px" viewBox="0 0 32 32" enable-background="new 0 0 32 32" xml:space="preserve" width="32" height="32">
      <g>
        <g>
          <path d="M17.572,23.933l4.106,7.095L32,13.189h-8.981V7.582L11.51,0.972L0,7.582v13.222l11.51,6.611L17.572,23.933z     M28.532,15.189l-6.855,11.846l-6.855-11.846H28.532z"/>
        </g>
      </g>
    </svg>
	</g>
	<path data-refid="title" data-textpathprops="{&quot;fontSrc&quot;:&quot;https://api.freelogodesign.org/assets/fonts/vt323.woff&quot;,&quot;fontFamily&quot;:&quot;Open Sans&quot;,&quot;fontWeight&quot;:&quot;400&quot;,&quot;fontStyle&quot;:&quot;normal&quot;,&quot;fontSize&quot;:40,&quot;text&quot;:&quot;CK Games&quot;,&quot;letterSpacing&quot;:0}" fill="yellow" d="M 11.2-6.4L 14.4-6.4Q 14.56-5.76  14.56-4.8L 14.56-4.8Q 14.56-3.88  14.4-3.2L 14.4-3.2L 12.8-3.2Q 12.96-2.56  12.96-1.6L 12.96-1.6Q 12.96-0.68  12.8 0L 12.8 0L 4.8 0Q 4.64-0.68  4.64-1.6L 4.64-1.6Q 4.64-2.56  4.8-3.2L 4.8-3.2L 3.2-3.2Q 3.04-3.88  3.04-4.8L 3.04-4.8Q 3.04-5.76  3.2-6.4L 3.2-6.4L 1.6-6.4Q 1.44-7.08  1.44-8L 1.44-8Q 1.44-8.96  1.6-9.6L 1.6-9.6Q 1.44-10.28  1.44-11.2L 1.44-11.2Q 1.44-12.16  1.6-12.8L 1.6-12.8Q 1.44-13.48  1.44-14.4L 1.44-14.4Q 1.44-15.36  1.6-16L 1.6-16L 3.2-16Q 3.04-16.68  3.04-17.6L 3.04-17.6Q 3.04-18.56  3.2-19.2L 3.2-19.2L 4.8-19.2Q 4.64-19.88  4.64-20.8L 4.64-20.8Q 4.64-21.76  4.8-22.4L 4.8-22.4L 12.8-22.4Q 12.96-21.76  12.96-20.8L 12.96-20.8Q 12.96-19.88  12.8-19.2L 12.8-19.2L 14.4-19.2Q 14.56-18.56  14.56-17.6L 14.56-17.6Q 14.56-16.68  14.4-16L 14.4-16L 11.2-16Q 11.04-16.68  11.04-17.6L 11.04-17.6Q 11.04-18.56  11.2-19.2L 11.2-19.2L 6.4-19.2Q 6.56-18.56  6.56-17.6L 6.56-17.6Q 6.56-16.68  6.4-16L 6.4-16L 4.8-16Q 4.96-15.36  4.96-14.4L 4.96-14.4Q 4.96-13.48  4.8-12.8L 4.8-12.8Q 4.96-12.16  4.96-11.2L 4.96-11.2Q 4.96-10.28  4.8-9.6L 4.8-9.6Q 4.96-8.96  4.96-8L 4.96-8Q 4.96-7.08  4.8-6.4L 4.8-6.4L 6.4-6.4Q 6.56-5.76  6.56-4.8L 6.56-4.8Q 6.56-3.88  6.4-3.2L 6.4-3.2L 11.2-3.2Q 11.04-3.88  11.04-4.8L 11.04-4.8Q 11.04-5.76  11.2-6.4L 11.2-6.4ZM 29.2-3.2L 30.4-3.2Q 30.560000000000002-2.56  30.560000000000002-1.6L 30.560000000000002-1.6Q 30.560000000000002-0.68  30.4 0L 30.4 0L 27.2 0Q 27.04-0.68  27.04-1.6L 27.04-1.6Q 27.04-2.56  27.2-3.2L 27.2-3.2L 26-3.2Q 25.84-3.88  25.84-4.8L 25.84-4.8Q 25.84-5.76  26-6.4L 26-6.4L 23.6-6.4Q 23.44-7.08  23.44-8L 23.44-8Q 23.44-8.96  23.6-9.6L 23.6-9.6L 20.8-9.6Q 20.96-8.96  20.96-8L 20.96-8Q 20.96-7.08  20.8-6.4L 20.8-6.4Q 20.96-5.76  20.96-4.8L 20.96-4.8Q 20.96-3.88  20.8-3.2L 20.8-3.2Q 20.96-2.56  20.96-1.6L 20.96-1.6Q 20.96-0.68  20.8 0L 20.8 0L 17.6 0Q 17.44-0.68  17.44-1.6L 17.44-1.6Q 17.44-2.56  17.6-3.2L 17.6-3.2Q 17.44-3.88  17.44-4.8L 17.44-4.8Q 17.44-5.76  17.6-6.4L 17.6-6.4Q 17.44-7.08  17.44-8L 17.44-8Q 17.44-8.96  17.6-9.6L 17.6-9.6Q 17.44-10.28  17.44-11.2L 17.44-11.2Q 17.44-12.16  17.6-12.8L 17.6-12.8Q 17.44-13.48  17.44-14.4L 17.44-14.4Q 17.44-15.36  17.6-16L 17.6-16Q 17.44-16.68  17.44-17.6L 17.44-17.6Q 17.44-18.56  17.6-19.2L 17.6-19.2Q 17.44-19.88  17.44-20.8L 17.44-20.8Q 17.44-21.76  17.6-22.4L 17.6-22.4L 20.8-22.4Q 20.96-21.76  20.96-20.8L 20.96-20.8Q 20.96-19.88  20.8-19.2L 20.8-19.2Q 20.96-18.56  20.96-17.6L 20.96-17.6Q 20.96-16.68  20.8-16L 20.8-16Q 20.96-15.36  20.96-14.4L 20.96-14.4Q 20.96-13.48  20.8-12.8L 20.8-12.8L 23.6-12.8Q 23.44-13.48  23.44-14.4L 23.44-14.4Q 23.44-15.36  23.6-16L 23.6-16L 26-16Q 25.84-16.68  25.84-17.6L 25.84-17.6Q 25.84-18.56  26-19.2L 26-19.2L 27.2-19.2Q 27.04-19.88  27.04-20.8L 27.04-20.8Q 27.04-21.76  27.2-22.4L 27.2-22.4L 30.4-22.4Q 30.560000000000002-21.76  30.560000000000002-20.8L 30.560000000000002-20.8Q 30.560000000000002-19.88  30.4-19.2L 30.4-19.2L 29.2-19.2Q 29.36-18.56  29.36-17.6L 29.36-17.6Q 29.36-16.68  29.2-16L 29.2-16L 26.8-16Q 26.96-15.36  26.96-14.4L 26.96-14.4Q 26.96-13.48  26.8-12.8L 26.8-12.8L 24.8-12.8Q 24.96-12.16  24.96-11.2L 24.96-11.2Q 24.96-10.28  24.8-9.6L 24.8-9.6L 26.8-9.6Q 26.96-8.96  26.96-8L 26.96-8Q 26.96-7.08  26.8-6.4L 26.8-6.4L 29.2-6.4Q 29.36-5.76  29.36-4.8L 29.36-4.8Q 29.36-3.88  29.2-3.2L 29.2-3.2ZM 62.4-12.8Q 62.56-12.16  62.56-11.2L 62.56-11.2Q 62.56-10.28  62.4-9.6L 62.4-9.6Q 62.56-8.96  62.56-8L 62.56-8Q 62.56-7.08  62.4-6.4L 62.4-6.4Q 62.56-5.76  62.56-4.8L 62.56-4.8Q 62.56-3.88  62.4-3.2L 62.4-3.2L 60.8-3.2Q 60.96-2.56  60.96-1.6L 60.96-1.6Q 60.96-0.68  60.8 0L 60.8 0L 52.8 0Q 52.64-0.68  52.64-1.6L 52.64-1.6Q 52.64-2.56  52.8-3.2L 52.8-3.2L 51.2-3.2Q 51.04-3.88  51.04-4.8L 51.04-4.8Q 51.04-5.76  51.2-6.4L 51.2-6.4L 49.6-6.4Q 49.44-7.08  49.44-8L 49.44-8Q 49.44-8.96  49.6-9.6L 49.6-9.6Q 49.44-10.28  49.44-11.2L 49.44-11.2Q 49.44-12.16  49.6-12.8L 49.6-12.8Q 49.44-13.48  49.44-14.4L 49.44-14.4Q 49.44-15.36  49.6-16L 49.6-16L 51.2-16Q 51.04-16.68  51.04-17.6L 51.04-17.6Q 51.04-18.56  51.2-19.2L 51.2-19.2L 52.8-19.2Q 52.64-19.88  52.64-20.8L 52.64-20.8Q 52.64-21.76  52.8-22.4L 52.8-22.4L 60.8-22.4Q 60.96-21.76  60.96-20.8L 60.96-20.8Q 60.96-19.88  60.8-19.2L 60.8-19.2L 62.4-19.2Q 62.56-18.56  62.56-17.6L 62.56-17.6Q 62.56-16.68  62.4-16L 62.4-16L 59.2-16Q 59.04-16.68  59.04-17.6L 59.04-17.6Q 59.04-18.56  59.2-19.2L 59.2-19.2L 54.4-19.2Q 54.56-18.56  54.56-17.6L 54.56-17.6Q 54.56-16.68  54.4-16L 54.4-16L 52.8-16Q 52.96-15.36  52.96-14.4L 52.96-14.4Q 52.96-13.48  52.8-12.8L 52.8-12.8Q 52.96-12.16  52.96-11.2L 52.96-11.2Q 52.96-10.28  52.8-9.6L 52.8-9.6Q 52.96-8.96  52.96-8L 52.96-8Q 52.96-7.08  52.8-6.4L 52.8-6.4L 54.4-6.4Q 54.56-5.76  54.56-4.8L 54.56-4.8Q 54.56-3.88  54.4-3.2L 54.4-3.2L 59.2-3.2Q 59.04-3.88  59.04-4.8L 59.04-4.8Q 59.04-5.76  59.2-6.4L 59.2-6.4Q 59.04-7.08  59.04-8L 59.04-8Q 59.04-8.96  59.2-9.6L 59.2-9.6L 56.8-9.6Q 56.64-10.28  56.64-11.2L 56.64-11.2Q 56.64-12.16  56.8-12.8L 56.8-12.8L 62.4-12.8ZM 78.4-3.2Q 78.56-2.56  78.56-1.6L 78.56-1.6Q 78.56-0.68  78.4 0L 78.4 0L 75.2 0Q 75.03999999999999-0.68  75.03999999999999-1.6L 75.03999999999999-1.6Q 75.03999999999999-2.56  75.2-3.2L 75.2-3.2L 73.6-3.2Q 73.44-3.88  73.44-4.8L 73.44-4.8Q 73.44-5.76  73.6-6.4L 73.6-6.4L 68.8-6.4Q 68.96-5.76  68.96-4.8L 68.96-4.8Q 68.96-3.88  68.8-3.2L 68.8-3.2L 73.6-3.2Q 73.76-2.56  73.76-1.6L 73.76-1.6Q 73.76-0.68  73.6 0L 73.6 0L 67.2 0Q 67.04-0.68  67.04-1.6L 67.04-1.6Q 67.04-2.56  67.2-3.2L 67.2-3.2L 65.6-3.2Q 65.44-3.88  65.44-4.8L 65.44-4.8Q 65.44-5.76  65.6-6.4L 65.6-6.4L 67.2-6.4Q 67.04-7.08  67.04-8L 67.04-8Q 67.04-8.96  67.2-9.6L 67.2-9.6L 73.6-9.6Q 73.44-10.28  73.44-11.2L 73.44-11.2Q 73.44-12.16  73.6-12.8L 73.6-12.8L 68-12.8Q 67.84-13.48  67.84-14.4L 67.84-14.4Q 67.84-15.36  68-16L 68-16L 75.2-16Q 75.36-15.36  75.36-14.4L 75.36-14.4Q 75.36-13.48  75.2-12.8L 75.2-12.8L 76.8-12.8Q 76.96000000000001-12.16  76.96000000000001-11.2L 76.96000000000001-11.2Q 76.96000000000001-10.28  76.8-9.6L 76.8-9.6Q 76.96000000000001-8.96  76.96000000000001-8L 76.96000000000001-8Q 76.96000000000001-7.08  76.8-6.4L 76.8-6.4Q 76.96000000000001-5.76  76.96000000000001-4.8L 76.96000000000001-4.8Q 76.96000000000001-3.88  76.8-3.2L 76.8-3.2L 78.4-3.2ZM 83.76-14.4Q 83.76-13.48  83.6-12.8L 83.6-12.8L 84.8-12.8Q 84.96-12.16  84.96-11.2L 84.96-11.2Q 84.96-10.28  84.8-9.6L 84.8-9.6Q 84.96-8.96  84.96-8L 84.96-8Q 84.96-7.08  84.8-6.4L 84.8-6.4Q 84.96-5.76  84.96-4.8L 84.96-4.8Q 84.96-3.88  84.8-3.2L 84.8-3.2Q 84.96-2.56  84.96-1.6L 84.96-1.6Q 84.96-0.68  84.8 0L 84.8 0L 81.6 0Q 81.44-0.68  81.44-1.6L 81.44-1.6Q 81.44-2.56  81.6-3.2L 81.6-3.2Q 81.44-3.88  81.44-4.8L 81.44-4.8Q 81.44-5.76  81.6-6.4L 81.6-6.4Q 81.44-7.08  81.44-8L 81.44-8Q 81.44-8.96  81.6-9.6L 81.6-9.6Q 81.44-10.28  81.44-11.2L 81.44-11.2Q 81.44-12.16  81.6-12.8L 81.6-12.8Q 81.44-13.48  81.44-14.4L 81.44-14.4Q 81.44-15.36  81.6-16L 81.6-16L 83.6-16Q 83.76-15.36  83.76-14.4L 83.76-14.4ZM 88.16-14.4Q 88.16-13.48  88-12.8L 88-12.8L 89.2-12.8Q 89.36-12.16  89.36-11.2L 89.36-11.2Q 89.36-10.28  89.2-9.6L 89.2-9.6Q 89.36-8.96  89.36-8L 89.36-8Q 89.36-7.08  89.2-6.4L 89.2-6.4Q 89.36-5.76  89.36-4.8L 89.36-4.8Q 89.36-3.88  89.2-3.2L 89.2-3.2Q 89.36-2.56  89.36-1.6L 89.36-1.6Q 89.36-0.68  89.2 0L 89.2 0L 86.8 0Q 86.64-0.68  86.64-1.6L 86.64-1.6Q 86.64-2.56  86.8-3.2L 86.8-3.2Q 86.64-3.88  86.64-4.8L 86.64-4.8Q 86.64-5.76  86.8-6.4L 86.8-6.4Q 86.64-7.08  86.64-8L 86.64-8Q 86.64-8.96  86.8-9.6L 86.8-9.6Q 86.64-10.28  86.64-11.2L 86.64-11.2Q 86.64-12.16  86.8-12.8L 86.8-12.8L 84.8-12.8Q 84.64-13.48  84.64-14.4L 84.64-14.4Q 84.64-15.36  84.8-16L 84.8-16L 88-16Q 88.16-15.36  88.16-14.4L 88.16-14.4ZM 94.4-9.6Q 94.56-8.96  94.56-8L 94.56-8Q 94.56-7.08  94.4-6.4L 94.4-6.4Q 94.56-5.76  94.56-4.8L 94.56-4.8Q 94.56-3.88  94.4-3.2L 94.4-3.2Q 94.56-2.56  94.56-1.6L 94.56-1.6Q 94.56-0.68  94.4 0L 94.4 0L 91.2 0Q 91.03999999999999-0.68  91.03999999999999-1.6L 91.03999999999999-1.6Q 91.03999999999999-2.56  91.2-3.2L 91.2-3.2Q 91.03999999999999-3.88  91.03999999999999-4.8L 91.03999999999999-4.8Q 91.03999999999999-5.76  91.2-6.4L 91.2-6.4Q 91.03999999999999-7.08  91.03999999999999-8L 91.03999999999999-8Q 91.03999999999999-8.96  91.2-9.6L 91.2-9.6Q 91.03999999999999-10.28  91.03999999999999-11.2L 91.03999999999999-11.2Q 91.03999999999999-12.16  91.2-12.8L 91.2-12.8L 89.2-12.8Q 89.03999999999999-13.48  89.03999999999999-14.4L 89.03999999999999-14.4Q 89.03999999999999-15.36  89.2-16L 89.2-16L 92.8-16Q 92.96000000000001-15.36  92.96000000000001-14.4L 92.96000000000001-14.4Q 92.96000000000001-13.48  92.8-12.8L 92.8-12.8L 94.4-12.8Q 94.56-12.16  94.56-11.2L 94.56-11.2Q 94.56-10.28  94.4-9.6L 94.4-9.6ZM 110.56-11.2Q 110.56-10.28  110.4-9.6L 110.4-9.6Q 110.56-8.96  110.56-8L 110.56-8Q 110.56-7.08  110.4-6.4L 110.4-6.4L 102-6.4Q 102.16-5.76  102.16-4.8L 102.16-4.8Q 102.16-3.88  102-3.2L 102-3.2L 108.8-3.2Q 108.96000000000001-2.56  108.96000000000001-1.6L 108.96000000000001-1.6Q 108.96000000000001-0.68  108.8 0L 108.8 0L 100.8 0Q 100.64-0.68  100.64-1.6L 100.64-1.6Q 100.64-2.56  100.8-3.2L 100.8-3.2L 98.8-3.2Q 98.64-3.88  98.64-4.8L 98.64-4.8Q 98.64-5.76  98.8-6.4L 98.8-6.4L 97.6-6.4Q 97.44-7.08  97.44-8L 97.44-8Q 97.44-8.96  97.6-9.6L 97.6-9.6L 98.8-9.6Q 98.64-10.28  98.64-11.2L 98.64-11.2Q 98.64-12.16  98.8-12.8L 98.8-12.8L 100.8-12.8Q 100.64-13.48  100.64-14.4L 100.64-14.4Q 100.64-15.36  100.8-16L 100.8-16L 108.8-16Q 108.96000000000001-15.36  108.96000000000001-14.4L 108.96000000000001-14.4Q 108.96000000000001-13.48  108.8-12.8L 108.8-12.8L 110.4-12.8Q 110.56-12.16  110.56-11.2L 110.56-11.2ZM 107.2-9.6Q 107.03999999999999-10.28  107.03999999999999-11.2L 107.03999999999999-11.2Q 107.03999999999999-12.16  107.2-12.8L 107.2-12.8L 102-12.8Q 102.16-12.16  102.16-11.2L 102.16-11.2Q 102.16-10.28  102-9.6L 102-9.6L 107.2-9.6ZM 125.76-4.8Q 125.76-3.88  125.6-3.2L 125.6-3.2L 124-3.2Q 124.16-2.56  124.16-1.6L 124.16-1.6Q 124.16-0.68  124 0L 124 0L 115.2 0Q 115.04-0.68  115.04-1.6L 115.04-1.6Q 115.04-2.56  115.2-3.2L 115.2-3.2L 122.4-3.2Q 122.24-3.88  122.24-4.8L 122.24-4.8Q 122.24-5.76  122.4-6.4L 122.4-6.4L 116-6.4Q 115.84-7.08  115.84-8L 115.84-8Q 115.84-8.96  116-9.6L 116-9.6L 114.4-9.6Q 114.24-10.28  114.24-11.2L 114.24-11.2Q 114.24-12.16  114.4-12.8L 114.4-12.8L 116-12.8Q 115.84-13.48  115.84-14.4L 115.84-14.4Q 115.84-15.36  116-16L 116-16L 124.8-16Q 124.96000000000001-15.36  124.96000000000001-14.4L 124.96000000000001-14.4Q 124.96000000000001-13.48  124.8-12.8L 124.8-12.8L 117.6-12.8Q 117.76-12.16  117.76-11.2L 117.76-11.2Q 117.76-10.28  117.6-9.6L 117.6-9.6L 124-9.6Q 124.16-8.96  124.16-8L 124.16-8Q 124.16-7.08  124-6.4L 124-6.4L 125.6-6.4Q 125.76-5.76  125.76-4.8L 125.76-4.8Z" data-box="80.21 177.64 139.86 25.20 " transform="matrix(1.125000019158636 0 0 1.125000019158636 78.59310260629304 202.83856910301182)"></path>
	<path data-refid="slogan" data-textpathprops="{&quot;fontSrc&quot;:&quot;https://api.freelogodesign.org/assets/fonts/exo-bold-italic.woff&quot;,&quot;fontFamily&quot;:&quot;Open Sans&quot;,&quot;fontWeight&quot;:&quot;400&quot;,&quot;fontStyle&quot;:&quot;normal&quot;,&quot;fontSize&quot;:14,&quot;text&quot;:&quot;Have fun with friends&quot;,&quot;letterSpacing&quot;:0}" fill="purple" d="M 2.94 0L 0.87 0L 2.51-10.36L 4.58-10.36L 3.89-6.05L 7.8-6.05L 8.48-10.36L 10.56-10.36L 8.92 0L 6.85 0L 7.5-4.19L 3.6-4.19L 2.94 0ZM 12.724 0.08L 12.724 0.08Q 12.164 0.08  11.703999999999999-0.18Q 11.244-0.45  10.963999999999999-1.02Q 10.684-1.6  10.684-2.51L 10.684-2.51Q 10.684-2.91  10.734-3.35Q 10.794-3.78  10.854-4.07L 10.854-4.07Q 11.033999999999999-5.26  11.504-6.04Q 11.984-6.82  12.803999999999998-7.21Q 13.623999999999999-7.6  14.824-7.6L 14.824-7.6Q 15.454-7.6  16.054-7.49Q 16.664-7.38  17.164-7.18Q 17.664-6.99  17.994-6.72L 17.994-6.72L 16.924 0L 15.094 0L 14.983999999999998-0.76Q 14.783999999999999-0.59  14.424-0.39Q 14.053999999999998-0.2  13.613999999999999-0.06Q 13.174 0.08  12.724 0.08ZM 13.733999999999998-1.58L 13.733999999999998-1.58Q 14.193999999999999-1.58  14.553999999999998-1.76Q 14.914-1.93  15.174-2.1L 15.174-2.1L 15.754-5.71Q 15.634-5.78  15.364-5.86Q 15.094-5.94  14.713999999999999-5.94L 14.713999999999999-5.94Q 14.154-5.94  13.783999999999999-5.7Q 13.414-5.46  13.193999999999999-5.01Q 12.974-4.56  12.884-3.92L 12.884-3.92Q 12.824-3.6  12.794-3.33Q 12.764-3.05  12.764-2.88L 12.764-2.88Q 12.764-2.31  13.004-1.95Q 13.244-1.58  13.733999999999998-1.58ZM 22.558 0L 20.158 0L 18.828-7.52L 20.958-7.52L 21.698-1.95L 23.368-5.47Q 23.608-6.01  23.747999999999998-6.5Q 23.898-7  23.968-7.63L 23.968-7.63L 25.868-7.63Q 25.857999999999997-6.83  25.567999999999998-6.06Q 25.268-5.29  24.918-4.59L 24.918-4.59L 22.558 0ZM 29.104 0.08L 29.104 0.08Q 28.014 0.08  27.363999999999997-0.24Q 26.714-0.57  26.413999999999998-1.2Q 26.124-1.83  26.124-2.72L 26.124-2.72Q 26.124-3.11  26.163999999999998-3.46Q 26.203999999999997-3.82  26.264-4.16L 26.264-4.16Q 26.464-5.39  26.953999999999997-6.15Q 27.453999999999997-6.9  28.273999999999997-7.26Q 29.093999999999998-7.62  30.194-7.62L 30.194-7.62Q 30.744-7.62  31.264-7.52Q 31.784-7.42  32.184-7.17Q 32.574-6.93  32.814-6.49Q 33.054-6.05  33.054-5.38L 33.054-5.38Q 33.054-4.59  32.804-4.09Q 32.554-3.58  32.093999999999994-3.31Q 31.644-3.04  31.054-2.93Q 30.464-2.83  29.804-2.83L 29.804-2.83Q 29.284-2.83  28.863999999999997-2.88Q 28.444-2.93  28.194-2.98L 28.194-2.98Q 28.183999999999997-2.87  28.174-2.74Q 28.163999999999998-2.6  28.163999999999998-2.48L 28.163999999999998-2.48Q 28.163999999999998-1.95  28.573999999999998-1.69Q 28.983999999999998-1.44  29.913999999999998-1.44L 29.913999999999998-1.44L 32.343999999999994-1.44L 32.144-0.22Q 31.583999999999996-0.11  30.784-0.01Q 29.983999999999998 0.08  29.104 0.08ZM 29.273999999999997-3.99L 29.273999999999997-3.99Q 29.913999999999998-3.99  30.333999999999996-4.11Q 30.744-4.23  30.933999999999997-4.49Q 31.124-4.75  31.124-5.15L 31.124-5.15Q 31.124-5.6  30.854-5.82Q 30.593999999999998-6.03  30.054-6.03L 30.054-6.03Q 29.523999999999997-6.03  29.183999999999997-5.81Q 28.843999999999998-5.59  28.633999999999997-5.15Q 28.433999999999997-4.72  28.333999999999996-4.07L 28.333999999999996-4.07Q 28.534-4.05  28.773999999999997-4.02Q 29.023999999999997-3.99  29.273999999999997-3.99ZM 39.54 0L 37.46 0L 38.39-5.85L 37.339999999999996-5.85L 37.55-7.18L 38.64-7.52L 38.839999999999996-8.62Q 38.919999999999995-9.16  39.12-9.55Q 39.309999999999995-9.95  39.629999999999995-10.23Q 39.96-10.5  40.43-10.63Q 40.91-10.77  41.55-10.77L 41.55-10.77Q 42.04-10.77  42.489999999999995-10.73Q 42.94-10.7  43.25-10.64L 43.25-10.64L 43.01-9.11L 41.93-9.11Q 41.55-9.11  41.309999999999995-9Q 41.08-8.89  40.959999999999994-8.66Q 40.839999999999996-8.43  40.8-8.05L 40.8-8.05L 40.73-7.52L 42.55-7.52L 42.28-5.85L 40.459999999999994-5.85L 39.54 0ZM 44.58 0.08L 44.58 0.08Q 43.6 0.08  43.16-0.39Q 42.71-0.85  42.71-1.68L 42.71-1.68Q 42.71-1.97  42.73-2.18Q 42.76-2.39  42.78-2.59L 42.78-2.59L 43.57-7.52L 45.64-7.52L 44.91-2.84Q 44.9-2.77  44.89-2.7Q 44.879999999999995-2.63  44.879999999999995-2.53L 44.879999999999995-2.53Q 44.879999999999995-2.13  45.129999999999995-1.95Q 45.37-1.78  45.769999999999996-1.78L 45.769999999999996-1.78Q 46.28-1.78  46.68-1.95Q 47.08-2.13  47.46-2.39L 47.46-2.39L 48.269999999999996-7.52L 50.339999999999996-7.52L 49.17 0L 47.32 0L 47.21-0.77Q 46.82-0.5  46.43-0.31Q 46.05-0.11  45.61-0.01Q 45.16 0.08  44.58 0.08ZM 52.739999999999995 0L 50.669999999999995 0L 51.839999999999996-7.52L 53.559999999999995-7.52L 53.8-6.75Q 54.29-7.11  54.94-7.36Q 55.589999999999996-7.62  56.39-7.62L 56.39-7.62Q 57.019999999999996-7.62  57.44-7.39Q 57.86-7.17  58.08-6.79Q 58.3-6.41  58.3-5.92L 58.3-5.92Q 58.3-5.68  58.279999999999994-5.38Q 58.25-5.07  58.129999999999995-4.37L 58.129999999999995-4.37L 57.44 0L 55.37 0L 56.04-4.3Q 56.08-4.59  56.11-4.73Q 56.129999999999995-4.87  56.129999999999995-4.96L 56.129999999999995-4.96Q 56.129999999999995-5.32  55.919999999999995-5.54Q 55.709999999999994-5.75  55.22-5.75L 55.22-5.75Q 54.739999999999995-5.75  54.33-5.58Q 53.92999999999999-5.4  53.55-5.12L 53.55-5.12L 52.739999999999995 0ZM 66.17399999999999 0L 63.98399999999999 0L 62.77399999999999-7.52L 64.904-7.52L 65.544-1.95L 67.80399999999999-7.52L 69.16399999999999-7.52L 70.14399999999999-1.95L 71.52399999999999-5.71Q 71.594-5.91  71.69399999999999-6.24Q 71.79399999999998-6.57  71.88399999999999-6.94Q 71.97399999999999-7.32  72.00399999999999-7.63L 72.00399999999999-7.63L 74.014-7.63Q 74.014-7.18  73.904-6.69Q 73.79399999999998-6.2  73.63399999999999-5.74Q 73.47399999999999-5.28  73.314-4.94L 73.314-4.94L 70.99399999999999 0L 68.79399999999998 0L 67.99399999999999-4.14L 66.17399999999999 0ZM 77.47399999999999-8.62L 75.884-8.62Q 75.75399999999999-8.62  75.684-8.7Q 75.61399999999999-8.78  75.64399999999999-8.9L 75.64399999999999-8.9L 75.854-10.28Q 75.904-10.57  76.184-10.57L 76.184-10.57L 77.78399999999999-10.57Q 77.92399999999999-10.57  77.97399999999999-10.49Q 78.024-10.4  78.00399999999999-10.28L 78.00399999999999-10.28L 77.794-8.9Q 77.744-8.62  77.47399999999999-8.62L 77.47399999999999-8.62ZM 76.344 0L 74.274 0L 75.444-7.52L 77.53399999999999-7.52L 76.344 0ZM 82.13999999999999 0L 81 0Q 79.86999999999999 0  79.3-0.42Q 78.74-0.84  78.74-1.71L 78.74-1.71Q 78.74-1.96  78.75999999999999-2.29Q 78.78999999999999-2.62  78.86-3.01L 78.86-3.01L 79.38-5.85L 78.22-5.85L 78.42999999999999-7.18L 79.72-7.52L 80.33-9.62L 81.97-9.62L 81.63-7.52L 83.39999999999999-7.52L 83.14999999999999-5.85L 81.36999999999999-5.85L 80.91999999999999-3Q 80.88999999999999-2.87  80.86-2.66Q 80.82-2.45  80.82-2.28L 80.82-2.28Q 80.82-1.95  81-1.8Q 81.16999999999999-1.65  81.53999999999999-1.62L 81.53999999999999-1.62L 82.38999999999999-1.54L 82.13999999999999 0ZM 85.612 0L 83.542 0L 85.232-10.68L 87.30199999999999-10.68L 86.672-6.75Q 87.122-7.1  87.792-7.36Q 88.46199999999999-7.62  89.292-7.62L 89.292-7.62Q 90.202-7.62  90.682-7.17Q 91.172-6.72  91.172-5.74L 91.172-5.74Q 91.172-5.36  91.082-4.87L 91.082-4.87L 90.312 0L 88.24199999999999 0L 88.972-4.62Q 88.982-4.72  88.982-4.79Q 88.982-4.87  88.982-4.94L 88.982-4.94Q 88.982-5.4  88.74199999999999-5.58Q 88.512-5.75  88.13199999999999-5.75L 88.13199999999999-5.75Q 87.622-5.75  87.222-5.59Q 86.812-5.42  86.422-5.12L 86.422-5.12L 85.612 0ZM 97.836 0L 95.756 0L 96.686-5.85L 95.63600000000001-5.85L 95.846-7.18L 96.936-7.52L 97.13600000000001-8.62Q 97.21600000000001-9.16  97.41600000000001-9.55Q 97.60600000000001-9.95  97.926-10.23Q 98.256-10.5  98.726-10.63Q 99.206-10.77  99.846-10.77L 99.846-10.77Q 100.336-10.77  100.786-10.73Q 101.236-10.7  101.546-10.64L 101.546-10.64L 101.30600000000001-9.11L 100.226-9.11Q 99.846-9.11  99.60600000000001-9Q 99.376-8.89  99.256-8.66Q 99.13600000000001-8.43  99.096-8.05L 99.096-8.05L 99.02600000000001-7.52L 100.846-7.52L 100.57600000000001-5.85L 98.756-5.85L 97.836 0ZM 102.786 0L 100.706 0L 101.896-7.52L 103.736-7.52L 103.826-6.55Q 104.216-6.97  104.726-7.29Q 105.236-7.6  105.886-7.6L 105.886-7.6Q 106.106-7.6  106.286-7.59Q 106.466-7.57  106.636-7.52L 106.636-7.52L 106.316-5.45Q 106.116-5.46  105.896-5.47Q 105.676-5.47  105.446-5.47L 105.446-5.47Q 104.836-5.47  104.356-5.29Q 103.876-5.11  103.556-4.87L 103.556-4.87L 102.786 0ZM 109.77199999999999-8.62L 108.182-8.62Q 108.05199999999999-8.62  107.982-8.7Q 107.91199999999999-8.78  107.942-8.9L 107.942-8.9L 108.152-10.28Q 108.202-10.57  108.482-10.57L 108.482-10.57L 110.082-10.57Q 110.222-10.57  110.27199999999999-10.49Q 110.322-10.4  110.30199999999999-10.28L 110.30199999999999-10.28L 110.092-8.9Q 110.042-8.62  109.77199999999999-8.62L 109.77199999999999-8.62ZM 108.642 0L 106.572 0L 107.742-7.52L 109.832-7.52L 108.642 0ZM 113.398 0.08L 113.398 0.08Q 112.30799999999999 0.08  111.658-0.24Q 111.008-0.57  110.708-1.2Q 110.41799999999999-1.83  110.41799999999999-2.72L 110.41799999999999-2.72Q 110.41799999999999-3.11  110.458-3.46Q 110.49799999999999-3.82  110.55799999999999-4.16L 110.55799999999999-4.16Q 110.758-5.39  111.24799999999999-6.15Q 111.74799999999999-6.9  112.568-7.26Q 113.38799999999999-7.62  114.488-7.62L 114.488-7.62Q 115.038-7.62  115.55799999999999-7.52Q 116.07799999999999-7.42  116.478-7.17Q 116.868-6.93  117.10799999999999-6.49Q 117.348-6.05  117.348-5.38L 117.348-5.38Q 117.348-4.59  117.098-4.09Q 116.848-3.58  116.38799999999999-3.31Q 115.93799999999999-3.04  115.348-2.93Q 114.758-2.83  114.098-2.83L 114.098-2.83Q 113.57799999999999-2.83  113.158-2.88Q 112.738-2.93  112.488-2.98L 112.488-2.98Q 112.478-2.87  112.46799999999999-2.74Q 112.458-2.6  112.458-2.48L 112.458-2.48Q 112.458-1.95  112.868-1.69Q 113.27799999999999-1.44  114.208-1.44L 114.208-1.44L 116.63799999999999-1.44L 116.43799999999999-0.22Q 115.878-0.11  115.07799999999999-0.01Q 114.27799999999999 0.08  113.398 0.08ZM 113.568-3.99L 113.568-3.99Q 114.208-3.99  114.628-4.11Q 115.038-4.23  115.228-4.49Q 115.41799999999999-4.75  115.41799999999999-5.15L 115.41799999999999-5.15Q 115.41799999999999-5.6  115.148-5.82Q 114.88799999999999-6.03  114.348-6.03L 114.348-6.03Q 113.818-6.03  113.478-5.81Q 113.13799999999999-5.59  112.928-5.15Q 112.728-4.72  112.628-4.07L 112.628-4.07Q 112.82799999999999-4.05  113.068-4.02Q 113.318-3.99  113.568-3.99ZM 119.86999999999999 0L 117.8 0L 118.97-7.52L 120.69-7.52L 120.92999999999999-6.75Q 121.41999999999999-7.11  122.07-7.36Q 122.72-7.62  123.52-7.62L 123.52-7.62Q 124.14999999999999-7.62  124.57-7.39Q 124.99-7.17  125.21-6.79Q 125.42999999999999-6.41  125.42999999999999-5.92L 125.42999999999999-5.92Q 125.42999999999999-5.68  125.41-5.38Q 125.38-5.07  125.25999999999999-4.37L 125.25999999999999-4.37L 124.57 0L 122.49999999999999 0L 123.16999999999999-4.3Q 123.21-4.59  123.24-4.73Q 123.25999999999999-4.87  123.25999999999999-4.96L 123.25999999999999-4.96Q 123.25999999999999-5.32  123.05-5.54Q 122.83999999999999-5.75  122.35-5.75L 122.35-5.75Q 121.86999999999999-5.75  121.46-5.58Q 121.05999999999999-5.4  120.67999999999999-5.12L 120.67999999999999-5.12L 119.86999999999999 0ZM 128.45 0.08L 128.45 0.08Q 127.42999999999998 0.08  126.88999999999999-0.6Q 126.34999999999998-1.29  126.34999999999998-2.52L 126.34999999999998-2.52Q 126.34999999999998-3.3  126.49999999999999-4.12L 126.49999999999999-4.12Q 126.70999999999998-5.19  127.09999999999998-5.98Q 127.47999999999999-6.76  128.23-7.18Q 128.98-7.6  130.27999999999997-7.6L 130.27999999999997-7.6Q 130.66-7.6  131.01999999999998-7.56Q 131.38-7.52  131.67999999999998-7.41L 131.67999999999998-7.41L 132.2-10.68L 134.26999999999998-10.68L 132.57999999999998 0L 130.74999999999997 0L 130.61999999999998-0.76Q 130.35-0.53  129.99999999999997-0.34Q 129.64999999999998-0.15  129.26-0.04Q 128.86999999999998 0.08  128.45 0.08ZM 129.36999999999998-1.58L 129.36999999999998-1.58Q 129.82-1.58  130.17999999999998-1.74Q 130.54-1.9  130.83999999999997-2.1L 130.83999999999997-2.1L 131.42-5.71Q 131.21999999999997-5.81  130.96999999999997-5.87Q 130.71999999999997-5.94  130.36999999999998-5.94L 130.36999999999998-5.94Q 129.89-5.94  129.52999999999997-5.75Q 129.16-5.57  128.91-5.11Q 128.66-4.65  128.51-3.77L 128.51-3.77Q 128.45999999999998-3.53  128.43999999999997-3.3Q 128.41-3.08  128.41-2.87L 128.41-2.87Q 128.41-2.38  128.54-2.1Q 128.67-1.82  128.89-1.7Q 129.10999999999999-1.58  129.36999999999998-1.58ZM 137.07 0.08L 137.07 0.08Q 136.60999999999999 0.08  136.19 0.06Q 135.76999999999998 0.04  135.38 0Q 134.98999999999998-0.04  134.66-0.11Q 134.32999999999998-0.18  134.07999999999998-0.25L 134.07999999999998-0.25L 134.26999999999998-1.47L 137.54999999999998-1.47Q 137.91-1.47  138.14-1.61Q 138.38-1.75  138.43-2.02L 138.43-2.02L 138.47-2.32Q 138.48999999999998-2.39  138.48999999999998-2.43Q 138.48999999999998-2.46  138.48999999999998-2.49L 138.48999999999998-2.49Q 138.48999999999998-2.91  137.9-2.91L 137.9-2.91L 136.78-2.91Q 136.16-2.91  135.67-3.07Q 135.18-3.23  134.91-3.57Q 134.64-3.91  134.64-4.44L 134.64-4.44Q 134.64-4.58  134.65-4.74Q 134.67-4.9  134.69-5.07L 134.69-5.07L 134.78-5.6Q 134.89-6.19  135.2-6.64Q 135.51999999999998-7.08  136.16-7.34Q 136.79-7.6  137.87-7.6L 137.87-7.6Q 138.32-7.6  138.85-7.55Q 139.37-7.5  139.87-7.43Q 140.38-7.35  140.73999999999998-7.25L 140.73999999999998-7.25L 140.53-6.03L 137.47-6.03Q 137.06-6.03  136.87-5.9Q 136.68-5.77  136.63-5.46L 136.63-5.46L 136.57999999999998-5.25Q 136.56-5.15  136.54999999999998-5.08Q 136.54-5.01  136.54-4.96L 136.54-4.96Q 136.54-4.77  136.68-4.68Q 136.82-4.58  137.19-4.58L 137.19-4.58L 138.45-4.58Q 139.34-4.58  139.88-4.18Q 140.42-3.78  140.42-3.08L 140.42-3.08Q 140.42-2.94  140.41-2.79Q 140.41-2.63  140.38-2.48L 140.38-2.48L 140.28-1.82Q 140.10999999999999-0.77  139.26999999999998-0.34Q 138.43 0.08  137.07 0.08Z" data-box="93.29 209.14 113.70 8.82 " transform="matrix(0.8129031972259944 0 0 0.8129031972259945 92.58548861669892 217.89353690925336)"></path>
</svg>